<svg width="36" height="37" viewBox="0 0 36 37" fill="none" xmlns="http://www.w3.org/2000/svg">
<path d="M25.5 5H31.5C31.8978 5 32.2794 5.15804 32.5607 5.43934C32.842 5.72064 33 6.10218 33 6.5V30.5C33 30.8978 32.842 31.2794 32.5607 31.5607C32.2794 31.842 31.8978 32 31.5 32H4.5C4.10218 32 3.72064 31.842 3.43934 31.5607C3.15804 31.2794 3 30.8978 3 30.5V6.5C3 6.10218 3.15804 5.72064 3.43934 5.43934C3.72064 5.15804 4.10218 5 4.5 5H10.5V2H13.5V5H22.5V2H25.5V5ZM6 14V29H30V14H6ZM9 20H16.5V26H9V20Z" fill="#2970DA"/>
</svg>
