<svg width="32" height="32" viewBox="0 0 32 32" fill="none" xmlns="http://www.w3.org/2000/svg">
<g clip-path="url(#clip0_0_280)">
<path d="M17.3333 18.7493V29.3333H5.33331C5.33317 27.8198 5.65509 26.3237 6.27767 24.9443C6.90025 23.5648 7.80925 22.3337 8.94427 21.3326C10.0793 20.3315 11.4143 19.5834 12.8607 19.138C14.3071 18.6926 15.8318 18.5601 17.3333 18.7493ZM16 17.3333C11.58 17.3333 7.99998 13.7533 7.99998 9.33325C7.99998 4.91325 11.58 1.33325 16 1.33325C20.42 1.33325 24 4.91325 24 9.33325C24 13.7533 20.42 17.3333 16 17.3333ZM23.724 26.5519L28.4373 21.8386L30.324 23.7239L23.724 30.3239L19.0093 25.6093L20.896 23.7239L23.7226 26.5519H23.724Z" fill="#2970DA"/>
</g>
<defs>
<clipPath id="clip0_0_280">
<rect width="32" height="32" fill="white"/>
</clipPath>
</defs>
</svg>
