<svg width="32" height="33" viewBox="0 0 32 33" fill="none" xmlns="http://www.w3.org/2000/svg">
<g clip-path="url(#clip0_0_170)">
<path d="M15.9974 29.8307C8.6334 29.8307 2.66406 23.8614 2.66406 16.4974C2.66406 9.1334 8.6334 3.16406 15.9974 3.16406C23.3614 3.16406 29.3307 9.1334 29.3307 16.4974C29.3307 23.8614 23.3614 29.8307 15.9974 29.8307ZM9.33073 17.8307C9.33073 19.5988 10.0331 21.2945 11.2834 22.5448C12.5336 23.795 14.2293 24.4974 15.9974 24.4974C17.7655 24.4974 19.4612 23.795 20.7114 22.5448C21.9617 21.2945 22.6641 19.5988 22.6641 17.8307H19.9974C19.9974 18.8916 19.576 19.909 18.8258 20.6592C18.0757 21.4093 17.0583 21.8307 15.9974 21.8307C14.9365 21.8307 13.9191 21.4093 13.169 20.6592C12.4188 19.909 11.9974 18.8916 11.9974 17.8307H9.33073ZM10.6641 15.1641C11.1945 15.1641 11.7032 14.9533 12.0783 14.5783C12.4533 14.2032 12.6641 13.6945 12.6641 13.1641C12.6641 12.6336 12.4533 12.1249 12.0783 11.7498C11.7032 11.3748 11.1945 11.1641 10.6641 11.1641C10.1336 11.1641 9.62492 11.3748 9.24985 11.7498C8.87478 12.1249 8.66406 12.6336 8.66406 13.1641C8.66406 13.6945 8.87478 14.2032 9.24985 14.5783C9.62492 14.9533 10.1336 15.1641 10.6641 15.1641V15.1641ZM21.3307 15.1641C21.8612 15.1641 22.3699 14.9533 22.7449 14.5783C23.12 14.2032 23.3307 13.6945 23.3307 13.1641C23.3307 12.6336 23.12 12.1249 22.7449 11.7498C22.3699 11.3748 21.8612 11.1641 21.3307 11.1641C20.8003 11.1641 20.2916 11.3748 19.9165 11.7498C19.5414 12.1249 19.3307 12.6336 19.3307 13.1641C19.3307 13.6945 19.5414 14.2032 19.9165 14.5783C20.2916 14.9533 20.8003 15.1641 21.3307 15.1641Z" fill="#2970DA"/>
</g>
<defs>
<clipPath id="clip0_0_170">
<rect width="32" height="32" fill="white" transform="translate(0 0.5)"/>
</clipPath>
</defs>
</svg>
