<svg width="32" height="33" viewBox="0 0 32 33" fill="none" xmlns="http://www.w3.org/2000/svg">
<g clip-path="url(#clip0_0_128)">
<path d="M10.5909 24.5039C10.1949 22.8065 8.40821 21.4185 7.67488 20.5039C6.41913 18.9349 5.63214 17.0432 5.40456 15.0465C5.17698 13.0498 5.51808 11.0295 6.38855 9.2182C7.25902 7.40691 8.62346 5.87837 10.3247 4.80865C12.0259 3.73893 13.9947 3.17155 16.0043 3.17188C18.0139 3.1722 19.9825 3.74021 21.6834 4.81047C23.3843 5.88073 24.7483 7.40971 25.6182 9.22128C26.488 11.0328 26.8285 13.0533 26.6003 15.0499C26.3721 17.0465 25.5845 18.938 24.3282 20.5065C23.5949 21.4199 21.8109 22.8079 21.4149 24.5039H10.5895H10.5909ZM21.3362 27.1705V28.5039C21.3362 29.2111 21.0553 29.8894 20.5552 30.3895C20.0551 30.8896 19.3768 31.1705 18.6695 31.1705H13.3362C12.629 31.1705 11.9507 30.8896 11.4506 30.3895C10.9505 29.8894 10.6695 29.2111 10.6695 28.5039V27.1705H21.3362ZM17.3362 13.8439V8.50387L11.3362 16.5105H14.6695V21.8439L20.6695 13.8439H17.3362V13.8439Z" fill="#2970DA"/>
</g>
<defs>
<clipPath id="clip0_0_128">
<rect width="32" height="32" fill="white" transform="translate(0 0.5)"/>
</clipPath>
</defs>
</svg>
