<svg width="32" height="33" viewBox="0 0 32 33" fill="none" xmlns="http://www.w3.org/2000/svg">
<g clip-path="url(#clip0_0_149)">
<path d="M7.51461 17.4419L9.95194 19.8806L11.8399 17.9926L9.39994 15.5566L11.2853 13.6713L13.7239 16.1086L15.6093 14.2233L13.1733 11.7846L15.0586 9.89928L17.4933 12.3393L19.3799 10.4526L16.9413 8.01528L20.7133 4.24461C20.9633 3.99465 21.3024 3.85423 21.6559 3.85423C22.0095 3.85423 22.3486 3.99465 22.5986 4.24461L28.2546 9.90061C28.5046 10.1506 28.645 10.4897 28.645 10.8433C28.645 11.1968 28.5046 11.5359 28.2546 11.7859L11.2853 28.7553C11.0352 29.0052 10.6962 29.1457 10.3426 29.1457C9.98906 29.1457 9.64998 29.0052 9.39994 28.7553L3.74394 23.0993C3.49398 22.8492 3.35356 22.5102 3.35356 22.1566C3.35356 21.8031 3.49398 21.464 3.74394 21.2139L7.51461 17.4419V17.4419ZM18.8279 24.9833L24.4853 19.3273L27.9999 22.8419V28.4993H22.3439L18.8279 24.9833ZM7.51461 13.6699L3.74261 9.89928C3.61864 9.77545 3.5203 9.6284 3.4532 9.46653C3.3861 9.30467 3.35156 9.13117 3.35156 8.95594C3.35156 8.78072 3.3861 8.60722 3.4532 8.44536C3.5203 8.28349 3.61864 8.13644 3.74261 8.01261L7.51461 4.24194C7.76465 3.99198 8.10373 3.85156 8.45728 3.85156C8.81083 3.85156 9.14991 3.99198 9.39994 4.24194L13.1733 8.01261L7.51461 13.6699Z" fill="#2970DA"/>
</g>
<defs>
<clipPath id="clip0_0_149">
<rect width="32" height="32" fill="white" transform="translate(0 0.5)"/>
</clipPath>
</defs>
</svg>
