<svg width="32" height="33" viewBox="0 0 32 33" fill="none" xmlns="http://www.w3.org/2000/svg">
<g clip-path="url(#clip0_0_107)">
<path d="M9.33073 9.83073V4.4974C9.33073 4.14377 9.47121 3.80464 9.72125 3.55459C9.9713 3.30454 10.3104 3.16406 10.6641 3.16406H27.9974C28.351 3.16406 28.6902 3.30454 28.9402 3.55459C29.1903 3.80464 29.3307 4.14377 29.3307 4.4974V21.8307C29.3307 22.1844 29.1903 22.5235 28.9402 22.7735C28.6902 23.0236 28.351 23.1641 27.9974 23.1641H22.6641V28.4881C22.6641 29.2294 22.0654 29.8307 21.3214 29.8307H4.00673C3.83036 29.8309 3.65568 29.7963 3.49271 29.7289C3.32973 29.6615 3.18164 29.5626 3.05693 29.4379C2.93222 29.3131 2.83332 29.1651 2.76591 29.0021C2.6985 28.8391 2.66389 28.6644 2.66406 28.4881L2.66806 11.1734C2.66806 10.4321 3.26673 9.83073 4.01073 9.83073H9.33073ZM11.9974 9.83073H21.3214C22.0627 9.83073 22.6641 10.4294 22.6641 11.1734V20.4974H26.6641V5.83073H11.9974V9.83073ZM11.3347 24.4974L18.8761 16.9547L16.9907 15.0694L11.3347 20.7267L8.50406 17.8974L6.61873 19.7827L11.3347 24.4974Z" fill="#2970DA"/>
</g>
<defs>
<clipPath id="clip0_0_107">
<rect width="32" height="32" fill="white" transform="translate(0 0.5)"/>
</clipPath>
</defs>
</svg>
