<svg width="396" height="135" viewBox="0 0 396 135" fill="none" xmlns="http://www.w3.org/2000/svg">
<rect width="396" height="135" rx="12" fill="white"/>
<g clip-path="url(#clip0_0_168)">
<path d="M197.997 61.8307C190.633 61.8307 184.664 55.8614 184.664 48.4974C184.664 41.1334 190.633 35.1641 197.997 35.1641C205.361 35.1641 211.331 41.1334 211.331 48.4974C211.331 55.8614 205.361 61.8307 197.997 61.8307ZM191.331 49.8307C191.331 51.5988 192.033 53.2945 193.283 54.5448C194.534 55.795 196.229 56.4974 197.997 56.4974C199.766 56.4974 201.461 55.795 202.711 54.5448C203.962 53.2945 204.664 51.5988 204.664 49.8307H201.997C201.997 50.8916 201.576 51.909 200.826 52.6592C200.076 53.4093 199.058 53.8307 197.997 53.8307C196.937 53.8307 195.919 53.4093 195.169 52.6592C194.419 51.909 193.997 50.8916 193.997 49.8307H191.331ZM192.664 47.1641C193.194 47.1641 193.703 46.9533 194.078 46.5783C194.453 46.2032 194.664 45.6945 194.664 45.1641C194.664 44.6336 194.453 44.1249 194.078 43.7498C193.703 43.3748 193.194 43.1641 192.664 43.1641C192.134 43.1641 191.625 43.3748 191.25 43.7498C190.875 44.1249 190.664 44.6336 190.664 45.1641C190.664 45.6945 190.875 46.2032 191.25 46.5783C191.625 46.9533 192.134 47.1641 192.664 47.1641ZM203.331 47.1641C203.861 47.1641 204.37 46.9533 204.745 46.5783C205.12 46.2032 205.331 45.6945 205.331 45.1641C205.331 44.6336 205.12 44.1249 204.745 43.7498C204.37 43.3748 203.861 43.1641 203.331 43.1641C202.8 43.1641 202.292 43.3748 201.917 43.7498C201.541 44.1249 201.331 44.6336 201.331 45.1641C201.331 45.6945 201.541 46.2032 201.917 46.5783C202.292 46.9533 202.8 47.1641 203.331 47.1641Z" fill="#2970DA"/>
</g>
<path d="M157.082 82.5371C156.444 82.5371 155.809 82.6283 155.178 82.8105C154.553 82.9928 153.941 83.2109 153.342 83.4648L152.385 81.0234C153.081 80.7109 153.824 80.4668 154.611 80.291C155.399 80.1087 156.242 80.0176 157.141 80.0176C158.189 80.0176 159.123 80.1836 159.943 80.5156C160.77 80.8411 161.467 81.3197 162.033 81.9512C162.606 82.5827 163.039 83.3542 163.332 84.2656C163.632 85.1771 163.781 86.2155 163.781 87.3809C163.781 88.8457 163.534 90.1283 163.039 91.2285C162.551 92.3223 161.796 93.1751 160.773 93.7871C159.751 94.3926 158.446 94.6953 156.857 94.6953C156.037 94.6953 155.298 94.6367 154.641 94.5195C153.99 94.4089 153.322 94.2233 152.639 93.9629V91.4238C153.4 91.6647 154.104 91.8503 154.748 91.9805C155.399 92.1107 156.044 92.1758 156.682 92.1758C157.294 92.1758 157.834 92.1009 158.303 91.9512C158.778 91.7949 159.178 91.5671 159.504 91.2676C159.836 90.9616 160.093 90.584 160.275 90.1348C160.464 89.679 160.572 89.1484 160.598 88.543H154.406V86.0625H160.578C160.559 85.5026 160.464 85.0078 160.295 84.5781C160.126 84.1419 159.888 83.7708 159.582 83.4648C159.276 83.1589 158.911 82.9277 158.488 82.7715C158.072 82.6152 157.603 82.5371 157.082 82.5371ZM180.266 83.582V94.5H177.482V89.1387C177.482 88.6113 177.492 88.0938 177.512 87.5859C177.531 87.0781 177.561 86.6094 177.6 86.1797H177.541L174.523 94.5H172.287L169.221 86.1602H169.143C169.195 86.5964 169.23 87.0651 169.25 87.5664C169.27 88.0677 169.279 88.6178 169.279 89.2168V94.5H166.506V83.582H170.725L173.439 90.9844L176.203 83.582H180.266ZM193.322 83.582V94.5H190.334V85.8184H186.379V94.5H183.4V83.582H193.322ZM200.92 83.3574C202.385 83.3574 203.508 83.6764 204.289 84.3145C205.07 84.9525 205.461 85.9225 205.461 87.2246V94.5H203.381L202.805 93.0156H202.727C202.414 93.4062 202.095 93.7253 201.77 93.9727C201.444 94.2201 201.07 94.4023 200.646 94.5195C200.223 94.6367 199.709 94.6953 199.104 94.6953C198.459 94.6953 197.88 94.5716 197.365 94.3242C196.857 94.0768 196.457 93.6992 196.164 93.1914C195.871 92.6771 195.725 92.026 195.725 91.2383C195.725 90.0794 196.132 89.2266 196.945 88.6797C197.759 88.1263 198.98 87.8203 200.607 87.7617L202.502 87.7031V87.2246C202.502 86.6517 202.352 86.2318 202.053 85.9648C201.753 85.6979 201.337 85.5645 200.803 85.5645C200.275 85.5645 199.758 85.6393 199.25 85.7891C198.742 85.9388 198.234 86.1276 197.727 86.3555L196.74 84.3438C197.32 84.0378 197.967 83.7969 198.684 83.6211C199.406 83.4453 200.152 83.3574 200.92 83.3574ZM202.502 89.4414L201.35 89.4805C200.386 89.5065 199.715 89.679 199.338 89.998C198.967 90.3171 198.781 90.737 198.781 91.2578C198.781 91.7135 198.915 92.0391 199.182 92.2344C199.449 92.4232 199.797 92.5176 200.227 92.5176C200.865 92.5176 201.402 92.3288 201.838 91.9512C202.281 91.5736 202.502 91.0365 202.502 90.3398V89.4414ZM217.57 85.8184H213.996V94.5H211.018V85.8184H207.434V83.582H217.57V85.8184ZM222.492 83.582V87.8984C222.492 88.1198 222.482 88.3997 222.463 88.7383C222.45 89.0703 222.43 89.4089 222.404 89.7539C222.378 90.099 222.352 90.4082 222.326 90.6816C222.3 90.9551 222.281 91.1406 222.268 91.2383L227.307 83.582H230.891V94.5H228.01V90.1445C228.01 89.7865 228.023 89.3926 228.049 88.9629C228.075 88.5267 228.104 88.1165 228.137 87.7324C228.169 87.3483 228.192 87.0586 228.205 86.8633L223.186 94.5H219.611V83.582H222.492ZM235.686 94.5H232.463L235.402 90.1836C235.031 90.0273 234.683 89.8125 234.357 89.5391C234.032 89.2591 233.768 88.9076 233.566 88.4844C233.365 88.0612 233.264 87.5534 233.264 86.9609C233.264 85.8737 233.674 85.0404 234.494 84.4609C235.321 83.875 236.385 83.582 237.688 83.582H242.766V94.5H239.787V90.4375H238.146L235.686 94.5ZM236.184 86.9805C236.184 87.4362 236.363 87.7943 236.721 88.0547C237.085 88.3086 237.554 88.4355 238.127 88.4355H239.787V85.6816H237.746C237.212 85.6816 236.818 85.8118 236.564 86.0723C236.311 86.3262 236.184 86.6289 236.184 86.9805Z" fill="#2970DA"/>
<defs>
<clipPath id="clip0_0_168">
<rect width="32" height="32" fill="white" transform="translate(182 32.5)"/>
</clipPath>
</defs>
</svg>
