<svg width="396" height="135" viewBox="0 0 396 135" fill="none" xmlns="http://www.w3.org/2000/svg">
<rect width="396" height="135" rx="12" fill="white"/>
<g clip-path="url(#clip0_0_524)">
<path d="M210 37.8359V40.5026H208.667L200.667 52.5026V61.8359H195.333V52.5026L187.333 40.5026H186V37.8359H210Z" fill="#2970DA"/>
</g>
<path d="M137.883 80.0176V81.7754C139.439 81.8145 140.679 82.0846 141.604 82.5859C142.528 83.0872 143.195 83.735 143.605 84.5293C144.016 85.3171 144.221 86.1732 144.221 87.0977C144.221 87.7031 144.117 88.3184 143.908 88.9434C143.7 89.5684 143.352 90.1445 142.863 90.6719C142.382 91.1992 141.734 91.6289 140.92 91.9609C140.106 92.293 139.094 92.472 137.883 92.498V94.6953H135.158V92.498C133.928 92.472 132.902 92.293 132.082 91.9609C131.268 91.6224 130.62 91.1895 130.139 90.6621C129.663 90.1283 129.325 89.5488 129.123 88.9238C128.921 88.2988 128.82 87.6901 128.82 87.0977C128.82 86.401 128.931 85.7402 129.152 85.1152C129.38 84.4902 129.742 83.9336 130.236 83.4453C130.738 82.9505 131.392 82.5566 132.199 82.2637C133.007 81.9707 133.993 81.8079 135.158 81.7754V80.0176H137.883ZM135.158 84.1387C134.292 84.1777 133.602 84.3275 133.088 84.5879C132.58 84.8483 132.215 85.1934 131.994 85.623C131.773 86.0462 131.662 86.5312 131.662 87.0781C131.662 87.6771 131.783 88.2012 132.023 88.6504C132.271 89.0996 132.652 89.4544 133.166 89.7148C133.687 89.9753 134.351 90.125 135.158 90.1641V84.1387ZM137.883 84.1387V90.1641C138.697 90.125 139.361 89.9753 139.875 89.7148C140.389 89.4544 140.767 89.0996 141.008 88.6504C141.255 88.2012 141.379 87.6771 141.379 87.0781C141.379 86.5312 141.268 86.0462 141.047 85.623C140.826 85.1934 140.458 84.8483 139.943 84.5879C139.436 84.3275 138.749 84.1777 137.883 84.1387ZM156.613 89.0215C156.613 89.9329 156.49 90.7402 156.242 91.4434C156.001 92.1465 155.646 92.7422 155.178 93.2305C154.715 93.7122 154.156 94.0768 153.498 94.3242C152.847 94.5716 152.111 94.6953 151.291 94.6953C150.523 94.6953 149.816 94.5716 149.172 94.3242C148.534 94.0768 147.977 93.7122 147.502 93.2305C147.033 92.7422 146.669 92.1465 146.408 91.4434C146.154 90.7402 146.027 89.9329 146.027 89.0215C146.027 87.8105 146.242 86.7852 146.672 85.9453C147.102 85.1055 147.714 84.4674 148.508 84.0312C149.302 83.5951 150.249 83.377 151.35 83.377C152.372 83.377 153.277 83.5951 154.064 84.0312C154.859 84.4674 155.48 85.1055 155.93 85.9453C156.385 86.7852 156.613 87.8105 156.613 89.0215ZM149.064 89.0215C149.064 89.7376 149.143 90.3398 149.299 90.8281C149.455 91.3164 149.699 91.6842 150.031 91.9316C150.363 92.179 150.796 92.3027 151.33 92.3027C151.857 92.3027 152.284 92.179 152.609 91.9316C152.941 91.6842 153.182 91.3164 153.332 90.8281C153.488 90.3398 153.566 89.7376 153.566 89.0215C153.566 88.2988 153.488 87.6999 153.332 87.2246C153.182 86.7428 152.941 86.3815 152.609 86.1406C152.277 85.8997 151.844 85.7793 151.311 85.7793C150.523 85.7793 149.95 86.0495 149.592 86.5898C149.24 87.1302 149.064 87.9408 149.064 89.0215ZM166.232 83.582H169.514L165.188 88.8164L169.895 94.5H166.516L162.053 88.9629V94.5H159.074V83.582H162.053V88.8848L166.232 83.582ZM169.895 83.582H173.156L175.217 89.7246C175.282 89.9199 175.337 90.1185 175.383 90.3203C175.428 90.5221 175.467 90.7305 175.5 90.9453C175.533 91.1602 175.559 91.3848 175.578 91.6191H175.637C175.676 91.2676 175.728 90.9388 175.793 90.6328C175.865 90.3268 175.952 90.0241 176.057 89.7246L178.078 83.582H181.271L176.652 95.8965C176.372 96.6517 176.008 97.2799 175.559 97.7812C175.109 98.2891 174.592 98.6699 174.006 98.9238C173.426 99.1777 172.788 99.3047 172.092 99.3047C171.753 99.3047 171.46 99.2852 171.213 99.2461C170.965 99.2135 170.754 99.1777 170.578 99.1387V96.7754C170.715 96.8079 170.887 96.8372 171.096 96.8633C171.304 96.8893 171.522 96.9023 171.75 96.9023C172.167 96.9023 172.525 96.8145 172.824 96.6387C173.124 96.4629 173.374 96.2253 173.576 95.9258C173.778 95.6328 173.938 95.3105 174.055 94.959L174.23 94.4219L169.895 83.582ZM187.277 94.6953C186.197 94.6953 185.275 94.5 184.514 94.1094C183.752 93.7122 183.173 93.1003 182.775 92.2734C182.378 91.4466 182.18 90.3887 182.18 89.0996C182.18 87.765 182.404 86.6777 182.854 85.8379C183.309 84.9915 183.938 84.3698 184.738 83.9727C185.546 83.5755 186.48 83.377 187.541 83.377C188.296 83.377 188.947 83.4518 189.494 83.6016C190.048 83.7448 190.529 83.9173 190.939 84.1191L190.061 86.4238C189.592 86.235 189.156 86.082 188.752 85.9648C188.348 85.8411 187.945 85.7793 187.541 85.7793C187.02 85.7793 186.587 85.903 186.242 86.1504C185.897 86.3913 185.64 86.7559 185.471 87.2441C185.301 87.7324 185.217 88.3444 185.217 89.0801C185.217 89.8027 185.308 90.4017 185.49 90.877C185.673 91.3522 185.936 91.707 186.281 91.9414C186.626 92.1693 187.046 92.2832 187.541 92.2832C188.16 92.2832 188.71 92.2018 189.191 92.0391C189.673 91.8698 190.142 91.6354 190.598 91.3359V93.8848C190.142 94.1712 189.663 94.3763 189.162 94.5C188.667 94.6302 188.039 94.6953 187.277 94.6953ZM196.018 83.582V87.8984C196.018 88.1198 196.008 88.3997 195.988 88.7383C195.975 89.0703 195.956 89.4089 195.93 89.7539C195.904 90.099 195.878 90.4082 195.852 90.6816C195.826 90.9551 195.806 91.1406 195.793 91.2383L200.832 83.582H204.416V94.5H201.535V90.1445C201.535 89.7865 201.548 89.3926 201.574 88.9629C201.6 88.5267 201.63 88.1165 201.662 87.7324C201.695 87.3483 201.717 87.0586 201.73 86.8633L196.711 94.5H193.137V83.582H196.018ZM213.625 83.377C214.855 83.377 215.848 83.8555 216.604 84.8125C217.365 85.7695 217.746 87.1725 217.746 89.0215C217.746 90.2585 217.567 91.3001 217.209 92.1465C216.851 92.9863 216.356 93.6211 215.725 94.0508C215.093 94.4805 214.367 94.6953 213.547 94.6953C213.02 94.6953 212.567 94.6302 212.189 94.5C211.812 94.3633 211.49 94.1908 211.223 93.9824C210.956 93.7676 210.725 93.5397 210.529 93.2988H210.373C210.425 93.5592 210.464 93.8262 210.49 94.0996C210.516 94.373 210.529 94.64 210.529 94.9004V99.3047H207.551V83.582H209.973L210.393 84.998H210.529C210.725 84.7051 210.962 84.4349 211.242 84.1875C211.522 83.9401 211.857 83.7448 212.248 83.6016C212.645 83.4518 213.104 83.377 213.625 83.377ZM212.668 85.7598C212.147 85.7598 211.734 85.8672 211.428 86.082C211.122 86.2969 210.897 86.6191 210.754 87.0488C210.617 87.4785 210.542 88.0221 210.529 88.6797V89.002C210.529 89.7051 210.594 90.3008 210.725 90.7891C210.861 91.2773 211.086 91.6484 211.398 91.9023C211.717 92.1562 212.154 92.2832 212.707 92.2832C213.163 92.2832 213.537 92.1562 213.83 91.9023C214.123 91.6484 214.341 91.2773 214.484 90.7891C214.634 90.2943 214.709 89.6921 214.709 88.9824C214.709 87.9147 214.543 87.1107 214.211 86.5703C213.879 86.0299 213.365 85.7598 212.668 85.7598ZM230.129 89.0215C230.129 89.9329 230.005 90.7402 229.758 91.4434C229.517 92.1465 229.162 92.7422 228.693 93.2305C228.231 93.7122 227.671 94.0768 227.014 94.3242C226.363 94.5716 225.627 94.6953 224.807 94.6953C224.038 94.6953 223.332 94.5716 222.688 94.3242C222.049 94.0768 221.493 93.7122 221.018 93.2305C220.549 92.7422 220.184 92.1465 219.924 91.4434C219.67 90.7402 219.543 89.9329 219.543 89.0215C219.543 87.8105 219.758 86.7852 220.188 85.9453C220.617 85.1055 221.229 84.4674 222.023 84.0312C222.818 83.5951 223.765 83.377 224.865 83.377C225.887 83.377 226.792 83.5951 227.58 84.0312C228.374 84.4674 228.996 85.1055 229.445 85.9453C229.901 86.7852 230.129 87.8105 230.129 89.0215ZM222.58 89.0215C222.58 89.7376 222.658 90.3398 222.814 90.8281C222.971 91.3164 223.215 91.6842 223.547 91.9316C223.879 92.179 224.312 92.3027 224.846 92.3027C225.373 92.3027 225.799 92.179 226.125 91.9316C226.457 91.6842 226.698 91.3164 226.848 90.8281C227.004 90.3398 227.082 89.7376 227.082 89.0215C227.082 88.2988 227.004 87.6999 226.848 87.2246C226.698 86.7428 226.457 86.3815 226.125 86.1406C225.793 85.8997 225.36 85.7793 224.826 85.7793C224.038 85.7793 223.465 86.0495 223.107 86.5898C222.756 87.1302 222.58 87.9408 222.58 89.0215ZM242.268 86.4434C242.268 87.0293 242.082 87.5306 241.711 87.9473C241.346 88.3574 240.806 88.6211 240.09 88.7383V88.8164C240.845 88.9076 241.454 89.1712 241.916 89.6074C242.378 90.0371 242.609 90.5807 242.609 91.2383C242.609 91.8633 242.447 92.4232 242.121 92.918C241.796 93.4062 241.278 93.7936 240.568 94.0801C239.859 94.36 238.931 94.5 237.785 94.5H232.59V83.582H237.785C238.638 83.582 239.403 83.6732 240.08 83.8555C240.757 84.0312 241.291 84.3275 241.682 84.7441C242.072 85.1608 242.268 85.7272 242.268 86.4434ZM239.523 91.082C239.523 90.6523 239.354 90.3431 239.016 90.1543C238.684 89.959 238.189 89.8613 237.531 89.8613H235.568V92.4395H237.59C238.15 92.4395 238.612 92.3353 238.977 92.127C239.341 91.9186 239.523 91.5703 239.523 91.082ZM239.25 86.6777C239.25 86.3392 239.117 86.0885 238.85 85.9258C238.583 85.763 238.189 85.6816 237.668 85.6816H235.568V87.8398H237.326C237.958 87.8398 238.436 87.7487 238.762 87.5664C239.087 87.3841 239.25 87.0879 239.25 86.6777ZM252.326 83.582H255.607L251.281 88.8164L255.988 94.5H252.609L248.146 88.9629V94.5H245.168V83.582H248.146V88.8848L252.326 83.582ZM262.023 83.3574C263.488 83.3574 264.611 83.6764 265.393 84.3145C266.174 84.9525 266.564 85.9225 266.564 87.2246V94.5H264.484L263.908 93.0156H263.83C263.518 93.4062 263.199 93.7253 262.873 93.9727C262.548 94.2201 262.173 94.4023 261.75 94.5195C261.327 94.6367 260.812 94.6953 260.207 94.6953C259.562 94.6953 258.983 94.5716 258.469 94.3242C257.961 94.0768 257.561 93.6992 257.268 93.1914C256.975 92.6771 256.828 92.026 256.828 91.2383C256.828 90.0794 257.235 89.2266 258.049 88.6797C258.863 88.1263 260.083 87.8203 261.711 87.7617L263.605 87.7031V87.2246C263.605 86.6517 263.456 86.2318 263.156 85.9648C262.857 85.6979 262.44 85.5645 261.906 85.5645C261.379 85.5645 260.861 85.6393 260.354 85.7891C259.846 85.9388 259.338 86.1276 258.83 86.3555L257.844 84.3438C258.423 84.0378 259.071 83.7969 259.787 83.6211C260.51 83.4453 261.255 83.3574 262.023 83.3574ZM263.605 89.4414L262.453 89.4805C261.49 89.5065 260.819 89.679 260.441 89.998C260.07 90.3171 259.885 90.737 259.885 91.2578C259.885 91.7135 260.018 92.0391 260.285 92.2344C260.552 92.4232 260.9 92.5176 261.33 92.5176C261.968 92.5176 262.505 92.3288 262.941 91.9512C263.384 91.5736 263.605 91.0365 263.605 90.3398V89.4414Z" fill="#2970DA"/>
<defs>
<clipPath id="clip0_0_524">
<rect width="32" height="32" fill="white" transform="translate(182 32.5)"/>
</clipPath>
</defs>
</svg>
