<svg width="396" height="135" viewBox="0 0 396 135" fill="none" xmlns="http://www.w3.org/2000/svg">
<rect width="396" height="135" rx="12" fill="white"/>
<g clip-path="url(#clip0_0_126)">
<path d="M192.591 56.5039C192.195 54.8065 190.408 53.4185 189.675 52.5039C188.419 50.9349 187.632 49.0432 187.405 47.0465C187.177 45.0498 187.518 43.0295 188.389 41.2182C189.259 39.4069 190.623 37.8784 192.325 36.8087C194.026 35.7389 195.995 35.1716 198.004 35.1719C200.014 35.1722 201.983 35.7402 203.683 36.8105C205.384 37.8807 206.748 39.4097 207.618 41.2213C208.488 43.0328 208.828 45.0533 208.6 47.0499C208.372 49.0465 207.584 50.938 206.328 52.5065C205.595 53.4199 203.811 54.8079 203.415 56.5039H192.59H192.591ZM203.336 59.1705V60.5039C203.336 61.2111 203.055 61.8894 202.555 62.3895C202.055 62.8896 201.377 63.1705 200.67 63.1705H195.336C194.629 63.1705 193.951 62.8896 193.451 62.3895C192.95 61.8894 192.67 61.2111 192.67 60.5039V59.1705H203.336ZM199.336 45.8439V40.5039L193.336 48.5105H196.67V53.8439L202.67 45.8439H199.336Z" fill="#2970DA"/>
</g>
<path d="M122.814 80.2227V82.7227H116.818V94.5H113.791V80.2227H122.814ZM129.289 83.377C130.298 83.377 131.167 83.5723 131.896 83.9629C132.626 84.347 133.189 84.9069 133.586 85.6426C133.983 86.3783 134.182 87.2767 134.182 88.3379V89.7832H127.141C127.173 90.623 127.424 91.2839 127.893 91.7656C128.368 92.2409 129.025 92.4785 129.865 92.4785C130.562 92.4785 131.2 92.4069 131.779 92.2637C132.359 92.1204 132.954 91.9056 133.566 91.6191V93.9238C133.026 94.1908 132.46 94.3861 131.867 94.5098C131.281 94.6335 130.568 94.6953 129.729 94.6953C128.635 94.6953 127.665 94.4935 126.818 94.0898C125.979 93.6862 125.318 93.071 124.836 92.2441C124.361 91.4173 124.123 90.3757 124.123 89.1191C124.123 87.8431 124.338 86.7819 124.768 85.9355C125.204 85.0827 125.809 84.4447 126.584 84.0215C127.359 83.5918 128.26 83.377 129.289 83.377ZM129.309 85.4961C128.729 85.4961 128.247 85.6816 127.863 86.0527C127.486 86.4238 127.268 87.0065 127.209 87.8008H131.389C131.382 87.3581 131.301 86.9642 131.145 86.6191C130.995 86.2741 130.767 86.0007 130.461 85.7988C130.161 85.597 129.777 85.4961 129.309 85.4961ZM139.582 83.582V87.7812H143.742V83.582H146.721V94.5H143.742V89.998H139.582V94.5H136.604V83.582H139.582ZM154.348 83.377C155.357 83.377 156.226 83.5723 156.955 83.9629C157.684 84.347 158.247 84.9069 158.645 85.6426C159.042 86.3783 159.24 87.2767 159.24 88.3379V89.7832H152.199C152.232 90.623 152.482 91.2839 152.951 91.7656C153.426 92.2409 154.084 92.4785 154.924 92.4785C155.62 92.4785 156.258 92.4069 156.838 92.2637C157.417 92.1204 158.013 91.9056 158.625 91.6191V93.9238C158.085 94.1908 157.518 94.3861 156.926 94.5098C156.34 94.6335 155.627 94.6953 154.787 94.6953C153.693 94.6953 152.723 94.4935 151.877 94.0898C151.037 93.6862 150.376 93.071 149.895 92.2441C149.419 91.4173 149.182 90.3757 149.182 89.1191C149.182 87.8431 149.396 86.7819 149.826 85.9355C150.262 85.0827 150.868 84.4447 151.643 84.0215C152.417 83.5918 153.319 83.377 154.348 83.377ZM154.367 85.4961C153.788 85.4961 153.306 85.6816 152.922 86.0527C152.544 86.4238 152.326 87.0065 152.268 87.8008H156.447C156.441 87.3581 156.359 86.9642 156.203 86.6191C156.053 86.2741 155.826 86.0007 155.52 85.7988C155.22 85.597 154.836 85.4961 154.367 85.4961ZM167.736 83.377C168.967 83.377 169.96 83.8555 170.715 84.8125C171.477 85.7695 171.857 87.1725 171.857 89.0215C171.857 90.2585 171.678 91.3001 171.32 92.1465C170.962 92.9863 170.467 93.6211 169.836 94.0508C169.204 94.4805 168.479 94.6953 167.658 94.6953C167.131 94.6953 166.678 94.6302 166.301 94.5C165.923 94.3633 165.601 94.1908 165.334 93.9824C165.067 93.7676 164.836 93.5397 164.641 93.2988H164.484C164.536 93.5592 164.576 93.8262 164.602 94.0996C164.628 94.373 164.641 94.64 164.641 94.9004V99.3047H161.662V83.582H164.084L164.504 84.998H164.641C164.836 84.7051 165.074 84.4349 165.354 84.1875C165.633 83.9401 165.969 83.7448 166.359 83.6016C166.757 83.4518 167.215 83.377 167.736 83.377ZM166.779 85.7598C166.258 85.7598 165.845 85.8672 165.539 86.082C165.233 86.2969 165.008 86.6191 164.865 87.0488C164.729 87.4785 164.654 88.0221 164.641 88.6797V89.002C164.641 89.7051 164.706 90.3008 164.836 90.7891C164.973 91.2773 165.197 91.6484 165.51 91.9023C165.829 92.1562 166.265 92.2832 166.818 92.2832C167.274 92.2832 167.648 92.1562 167.941 91.9023C168.234 91.6484 168.452 91.2773 168.596 90.7891C168.745 90.2943 168.82 89.6921 168.82 88.9824C168.82 87.9147 168.654 87.1107 168.322 86.5703C167.99 86.0299 167.476 85.7598 166.779 85.7598ZM178.791 83.3574C180.256 83.3574 181.379 83.6764 182.16 84.3145C182.941 84.9525 183.332 85.9225 183.332 87.2246V94.5H181.252L180.676 93.0156H180.598C180.285 93.4062 179.966 93.7253 179.641 93.9727C179.315 94.2201 178.941 94.4023 178.518 94.5195C178.094 94.6367 177.58 94.6953 176.975 94.6953C176.33 94.6953 175.751 94.5716 175.236 94.3242C174.729 94.0768 174.328 93.6992 174.035 93.1914C173.742 92.6771 173.596 92.026 173.596 91.2383C173.596 90.0794 174.003 89.2266 174.816 88.6797C175.63 88.1263 176.851 87.8203 178.479 87.7617L180.373 87.7031V87.2246C180.373 86.6517 180.223 86.2318 179.924 85.9648C179.624 85.6979 179.208 85.5645 178.674 85.5645C178.146 85.5645 177.629 85.6393 177.121 85.7891C176.613 85.9388 176.105 86.1276 175.598 86.3555L174.611 84.3438C175.191 84.0378 175.839 83.7969 176.555 83.6211C177.277 83.4453 178.023 83.3574 178.791 83.3574ZM180.373 89.4414L179.221 89.4805C178.257 89.5065 177.587 89.679 177.209 89.998C176.838 90.3171 176.652 90.737 176.652 91.2578C176.652 91.7135 176.786 92.0391 177.053 92.2344C177.32 92.4232 177.668 92.5176 178.098 92.5176C178.736 92.5176 179.273 92.3288 179.709 91.9512C180.152 91.5736 180.373 91.0365 180.373 90.3398V89.4414ZM198.322 98.416H195.646V94.5H186.408V83.582H189.387V92.2637H193.742V83.582H196.73V92.3223H198.322V98.416ZM203.059 83.582V87.8984C203.059 88.1198 203.049 88.3997 203.029 88.7383C203.016 89.0703 202.997 89.4089 202.971 89.7539C202.945 90.099 202.919 90.4082 202.893 90.6816C202.867 90.9551 202.847 91.1406 202.834 91.2383L207.873 83.582H211.457V94.5H208.576V90.1445C208.576 89.7865 208.589 89.3926 208.615 88.9629C208.641 88.5267 208.671 88.1165 208.703 87.7324C208.736 87.3483 208.758 87.0586 208.771 86.8633L203.752 94.5H200.178V83.582H203.059ZM216.252 94.5H213.029L215.969 90.1836C215.598 90.0273 215.249 89.8125 214.924 89.5391C214.598 89.2591 214.335 88.9076 214.133 88.4844C213.931 88.0612 213.83 87.5534 213.83 86.9609C213.83 85.8737 214.24 85.0404 215.061 84.4609C215.887 83.875 216.952 83.582 218.254 83.582H223.332V94.5H220.354V90.4375H218.713L216.252 94.5ZM216.75 86.9805C216.75 87.4362 216.929 87.7943 217.287 88.0547C217.652 88.3086 218.12 88.4355 218.693 88.4355H220.354V85.6816H218.312C217.779 85.6816 217.385 85.8118 217.131 86.0723C216.877 86.3262 216.75 86.6289 216.75 86.9805ZM234.523 83.582V87.8984C234.523 88.1198 234.514 88.3997 234.494 88.7383C234.481 89.0703 234.462 89.4089 234.436 89.7539C234.41 90.099 234.383 90.4082 234.357 90.6816C234.331 90.9551 234.312 91.1406 234.299 91.2383L239.338 83.582H242.922V94.5H240.041V90.1445C240.041 89.7865 240.054 89.3926 240.08 88.9629C240.106 88.5267 240.135 88.1165 240.168 87.7324C240.201 87.3483 240.223 87.0586 240.236 86.8633L235.217 94.5H231.643V83.582H234.523ZM255.871 83.582V92.3223H257.473V98.416H254.797V94.5H247.453V98.416H244.777V92.3223H245.695C246.177 91.5866 246.581 90.7467 246.906 89.8027C247.238 88.8587 247.505 87.8594 247.707 86.8047C247.915 85.7435 248.065 84.6693 248.156 83.582H255.871ZM252.893 85.8184H250.656C250.552 86.6257 250.419 87.4069 250.256 88.1621C250.1 88.9108 249.904 89.6335 249.67 90.3301C249.436 91.0202 249.149 91.6842 248.811 92.3223H252.893V85.8184ZM263.84 83.377C264.849 83.377 265.718 83.5723 266.447 83.9629C267.176 84.347 267.74 84.9069 268.137 85.6426C268.534 86.3783 268.732 87.2767 268.732 88.3379V89.7832H261.691C261.724 90.623 261.975 91.2839 262.443 91.7656C262.919 92.2409 263.576 92.4785 264.416 92.4785C265.113 92.4785 265.751 92.4069 266.33 92.2637C266.91 92.1204 267.505 91.9056 268.117 91.6191V93.9238C267.577 94.1908 267.01 94.3861 266.418 94.5098C265.832 94.6335 265.119 94.6953 264.279 94.6953C263.186 94.6953 262.215 94.4935 261.369 94.0898C260.529 93.6862 259.868 93.071 259.387 92.2441C258.911 91.4173 258.674 90.3757 258.674 89.1191C258.674 87.8431 258.889 86.7819 259.318 85.9355C259.755 85.0827 260.36 84.4447 261.135 84.0215C261.91 83.5918 262.811 83.377 263.84 83.377ZM263.859 85.4961C263.28 85.4961 262.798 85.6816 262.414 86.0527C262.036 86.4238 261.818 87.0065 261.76 87.8008H265.939C265.933 87.3581 265.852 86.9642 265.695 86.6191C265.546 86.2741 265.318 86.0007 265.012 85.7988C264.712 85.597 264.328 85.4961 263.859 85.4961ZM274.035 83.582V87.8984C274.035 88.1198 274.025 88.3997 274.006 88.7383C273.993 89.0703 273.973 89.4089 273.947 89.7539C273.921 90.099 273.895 90.4082 273.869 90.6816C273.843 90.9551 273.824 91.1406 273.811 91.2383L278.85 83.582H282.434V94.5H279.553V90.1445C279.553 89.7865 279.566 89.3926 279.592 88.9629C279.618 88.5267 279.647 88.1165 279.68 87.7324C279.712 87.3483 279.735 87.0586 279.748 86.8633L274.729 94.5H271.154V83.582H274.035ZM281.613 78.8848C281.542 79.5749 281.346 80.1836 281.027 80.7109C280.708 81.2383 280.21 81.6484 279.533 81.9414C278.856 82.2344 277.945 82.3809 276.799 82.3809C275.62 82.3809 274.702 82.2409 274.045 81.9609C273.387 81.6745 272.919 81.2708 272.639 80.75C272.359 80.2227 272.189 79.6009 272.131 78.8848H274.797C274.855 79.6204 275.041 80.1087 275.354 80.3496C275.666 80.584 276.167 80.7012 276.857 80.7012C277.43 80.7012 277.899 80.571 278.264 80.3105C278.628 80.0501 278.846 79.5749 278.918 78.8848H281.613Z" fill="#2970DA"/>
<defs>
<clipPath id="clip0_0_126">
<rect width="32" height="32" fill="white" transform="translate(182 32.5)"/>
</clipPath>
</defs>
</svg>
