<svg width="396" height="135" viewBox="0 0 396 135" fill="none" xmlns="http://www.w3.org/2000/svg">
<rect width="396" height="135" rx="12" fill="white"/>
<g clip-path="url(#clip0_0_147)">
<path d="M189.515 49.4419L191.952 51.8806L193.84 49.9926L191.4 47.5566L193.285 45.6713L195.724 48.1086L197.609 46.2233L195.173 43.7846L197.059 41.8993L199.493 44.3393L201.38 42.4526L198.941 40.0153L202.713 36.2446C202.963 35.9946 203.302 35.8542 203.656 35.8542C204.009 35.8542 204.349 35.9946 204.599 36.2446L210.255 41.9006C210.505 42.1506 210.645 42.4897 210.645 42.8433C210.645 43.1968 210.505 43.5359 210.255 43.7859L193.285 60.7553C193.035 61.0052 192.696 61.1457 192.343 61.1457C191.989 61.1457 191.65 61.0052 191.4 60.7553L185.744 55.0993C185.494 54.8492 185.354 54.5102 185.354 54.1566C185.354 53.8031 185.494 53.464 185.744 53.2139L189.515 49.4419ZM200.828 56.9833L206.485 51.3273L210 54.8419V60.4993H204.344L200.828 56.9833ZM189.515 45.6699L185.743 41.8993C185.619 41.7754 185.52 41.6284 185.453 41.4665C185.386 41.3047 185.352 41.1312 185.352 40.9559C185.352 40.7807 185.386 40.6072 185.453 40.4454C185.52 40.2835 185.619 40.1364 185.743 40.0126L189.515 36.2419C189.765 35.992 190.104 35.8516 190.457 35.8516C190.811 35.8516 191.15 35.992 191.4 36.2419L195.173 40.0126L189.515 45.6699Z" fill="#2970DA"/>
</g>
<path d="M97.0332 94.5V80.2227H108.332V94.5H105.314V82.7422H100.061V94.5H97.0332ZM117.775 83.377C119.006 83.377 119.999 83.8555 120.754 84.8125C121.516 85.7695 121.896 87.1725 121.896 89.0215C121.896 90.2585 121.717 91.3001 121.359 92.1465C121.001 92.9863 120.507 93.6211 119.875 94.0508C119.243 94.4805 118.518 94.6953 117.697 94.6953C117.17 94.6953 116.717 94.6302 116.34 94.5C115.962 94.3633 115.64 94.1908 115.373 93.9824C115.106 93.7676 114.875 93.5397 114.68 93.2988H114.523C114.576 93.5592 114.615 93.8262 114.641 94.0996C114.667 94.373 114.68 94.64 114.68 94.9004V99.3047H111.701V83.582H114.123L114.543 84.998H114.68C114.875 84.7051 115.113 84.4349 115.393 84.1875C115.673 83.9401 116.008 83.7448 116.398 83.6016C116.796 83.4518 117.255 83.377 117.775 83.377ZM116.818 85.7598C116.298 85.7598 115.884 85.8672 115.578 86.082C115.272 86.2969 115.048 86.6191 114.904 87.0488C114.768 87.4785 114.693 88.0221 114.68 88.6797V89.002C114.68 89.7051 114.745 90.3008 114.875 90.7891C115.012 91.2773 115.236 91.6484 115.549 91.9023C115.868 92.1562 116.304 92.2832 116.857 92.2832C117.313 92.2832 117.688 92.1562 117.98 91.9023C118.273 91.6484 118.492 91.2773 118.635 90.7891C118.785 90.2943 118.859 89.6921 118.859 88.9824C118.859 87.9147 118.693 87.1107 118.361 86.5703C118.029 86.0299 117.515 85.7598 116.818 85.7598ZM134.279 89.0215C134.279 89.9329 134.156 90.7402 133.908 91.4434C133.667 92.1465 133.312 92.7422 132.844 93.2305C132.382 93.7122 131.822 94.0768 131.164 94.3242C130.513 94.5716 129.777 94.6953 128.957 94.6953C128.189 94.6953 127.482 94.5716 126.838 94.3242C126.2 94.0768 125.643 93.7122 125.168 93.2305C124.699 92.7422 124.335 92.1465 124.074 91.4434C123.82 90.7402 123.693 89.9329 123.693 89.0215C123.693 87.8105 123.908 86.7852 124.338 85.9453C124.768 85.1055 125.38 84.4674 126.174 84.0312C126.968 83.5951 127.915 83.377 129.016 83.377C130.038 83.377 130.943 83.5951 131.73 84.0312C132.525 84.4674 133.146 85.1055 133.596 85.9453C134.051 86.7852 134.279 87.8105 134.279 89.0215ZM126.73 89.0215C126.73 89.7376 126.809 90.3398 126.965 90.8281C127.121 91.3164 127.365 91.6842 127.697 91.9316C128.029 92.179 128.462 92.3027 128.996 92.3027C129.523 92.3027 129.95 92.179 130.275 91.9316C130.607 91.6842 130.848 91.3164 130.998 90.8281C131.154 90.3398 131.232 89.7376 131.232 89.0215C131.232 88.2988 131.154 87.6999 130.998 87.2246C130.848 86.7428 130.607 86.3815 130.275 86.1406C129.943 85.8997 129.51 85.7793 128.977 85.7793C128.189 85.7793 127.616 86.0495 127.258 86.5898C126.906 87.1302 126.73 87.9408 126.73 89.0215ZM145.773 85.8184H142.199V94.5H139.221V85.8184H135.637V83.582H145.773V85.8184ZM157.736 89.0215C157.736 89.9329 157.613 90.7402 157.365 91.4434C157.124 92.1465 156.77 92.7422 156.301 93.2305C155.839 93.7122 155.279 94.0768 154.621 94.3242C153.97 94.5716 153.234 94.6953 152.414 94.6953C151.646 94.6953 150.939 94.5716 150.295 94.3242C149.657 94.0768 149.1 93.7122 148.625 93.2305C148.156 92.7422 147.792 92.1465 147.531 91.4434C147.277 90.7402 147.15 89.9329 147.15 89.0215C147.15 87.8105 147.365 86.7852 147.795 85.9453C148.225 85.1055 148.837 84.4674 149.631 84.0312C150.425 83.5951 151.372 83.377 152.473 83.377C153.495 83.377 154.4 83.5951 155.188 84.0312C155.982 84.4674 156.604 85.1055 157.053 85.9453C157.508 86.7852 157.736 87.8105 157.736 89.0215ZM150.188 89.0215C150.188 89.7376 150.266 90.3398 150.422 90.8281C150.578 91.3164 150.822 91.6842 151.154 91.9316C151.486 92.179 151.919 92.3027 152.453 92.3027C152.98 92.3027 153.407 92.179 153.732 91.9316C154.064 91.6842 154.305 91.3164 154.455 90.8281C154.611 90.3398 154.689 89.7376 154.689 89.0215C154.689 88.2988 154.611 87.6999 154.455 87.2246C154.305 86.7428 154.064 86.3815 153.732 86.1406C153.4 85.8997 152.967 85.7793 152.434 85.7793C151.646 85.7793 151.073 86.0495 150.715 86.5898C150.363 87.1302 150.188 87.9408 150.188 89.0215ZM169.23 85.8184H165.656V94.5H162.678V85.8184H159.094V83.582H169.23V85.8184ZM174.152 83.582V87.8984C174.152 88.1198 174.143 88.3997 174.123 88.7383C174.11 89.0703 174.09 89.4089 174.064 89.7539C174.038 90.099 174.012 90.4082 173.986 90.6816C173.96 90.9551 173.941 91.1406 173.928 91.2383L178.967 83.582H182.551V94.5H179.67V90.1445C179.67 89.7865 179.683 89.3926 179.709 88.9629C179.735 88.5267 179.764 88.1165 179.797 87.7324C179.829 87.3483 179.852 87.0586 179.865 86.8633L174.846 94.5H171.271V83.582H174.152ZM195.607 83.582V94.5H192.619V85.8184H188.664V94.5H185.686V83.582H195.607ZM201.613 83.582V87.8984C201.613 88.1198 201.604 88.3997 201.584 88.7383C201.571 89.0703 201.551 89.4089 201.525 89.7539C201.499 90.099 201.473 90.4082 201.447 90.6816C201.421 90.9551 201.402 91.1406 201.389 91.2383L206.428 83.582H210.012V94.5H207.131V90.1445C207.131 89.7865 207.144 89.3926 207.17 88.9629C207.196 88.5267 207.225 88.1165 207.258 87.7324C207.29 87.3483 207.313 87.0586 207.326 86.8633L202.307 94.5H198.732V83.582H201.613ZM219.221 83.377C220.451 83.377 221.444 83.8555 222.199 84.8125C222.961 85.7695 223.342 87.1725 223.342 89.0215C223.342 90.2585 223.163 91.3001 222.805 92.1465C222.447 92.9863 221.952 93.6211 221.32 94.0508C220.689 94.4805 219.963 94.6953 219.143 94.6953C218.615 94.6953 218.163 94.6302 217.785 94.5C217.408 94.3633 217.085 94.1908 216.818 93.9824C216.551 93.7676 216.32 93.5397 216.125 93.2988H215.969C216.021 93.5592 216.06 93.8262 216.086 94.0996C216.112 94.373 216.125 94.64 216.125 94.9004V99.3047H213.146V83.582H215.568L215.988 84.998H216.125C216.32 84.7051 216.558 84.4349 216.838 84.1875C217.118 83.9401 217.453 83.7448 217.844 83.6016C218.241 83.4518 218.7 83.377 219.221 83.377ZM218.264 85.7598C217.743 85.7598 217.329 85.8672 217.023 86.082C216.717 86.2969 216.493 86.6191 216.35 87.0488C216.213 87.4785 216.138 88.0221 216.125 88.6797V89.002C216.125 89.7051 216.19 90.3008 216.32 90.7891C216.457 91.2773 216.682 91.6484 216.994 91.9023C217.313 92.1562 217.749 92.2832 218.303 92.2832C218.758 92.2832 219.133 92.1562 219.426 91.9023C219.719 91.6484 219.937 91.2773 220.08 90.7891C220.23 90.2943 220.305 89.6921 220.305 88.9824C220.305 87.9147 220.139 87.1107 219.807 86.5703C219.475 86.0299 218.96 85.7598 218.264 85.7598ZM235.725 89.0215C235.725 89.9329 235.601 90.7402 235.354 91.4434C235.113 92.1465 234.758 92.7422 234.289 93.2305C233.827 93.7122 233.267 94.0768 232.609 94.3242C231.958 94.5716 231.223 94.6953 230.402 94.6953C229.634 94.6953 228.928 94.5716 228.283 94.3242C227.645 94.0768 227.089 93.7122 226.613 93.2305C226.145 92.7422 225.78 92.1465 225.52 91.4434C225.266 90.7402 225.139 89.9329 225.139 89.0215C225.139 87.8105 225.354 86.7852 225.783 85.9453C226.213 85.1055 226.825 84.4674 227.619 84.0312C228.413 83.5951 229.361 83.377 230.461 83.377C231.483 83.377 232.388 83.5951 233.176 84.0312C233.97 84.4674 234.592 85.1055 235.041 85.9453C235.497 86.7852 235.725 87.8105 235.725 89.0215ZM228.176 89.0215C228.176 89.7376 228.254 90.3398 228.41 90.8281C228.566 91.3164 228.811 91.6842 229.143 91.9316C229.475 92.179 229.908 92.3027 230.441 92.3027C230.969 92.3027 231.395 92.179 231.721 91.9316C232.053 91.6842 232.294 91.3164 232.443 90.8281C232.6 90.3398 232.678 89.7376 232.678 89.0215C232.678 88.2988 232.6 87.6999 232.443 87.2246C232.294 86.7428 232.053 86.3815 231.721 86.1406C231.389 85.8997 230.956 85.7793 230.422 85.7793C229.634 85.7793 229.061 86.0495 228.703 86.5898C228.352 87.1302 228.176 87.9408 228.176 89.0215ZM247.863 86.4434C247.863 87.0293 247.678 87.5306 247.307 87.9473C246.942 88.3574 246.402 88.6211 245.686 88.7383V88.8164C246.441 88.9076 247.049 89.1712 247.512 89.6074C247.974 90.0371 248.205 90.5807 248.205 91.2383C248.205 91.8633 248.042 92.4232 247.717 92.918C247.391 93.4062 246.874 93.7936 246.164 94.0801C245.454 94.36 244.527 94.5 243.381 94.5H238.186V83.582H243.381C244.234 83.582 244.999 83.6732 245.676 83.8555C246.353 84.0312 246.887 84.3275 247.277 84.7441C247.668 85.1608 247.863 85.7272 247.863 86.4434ZM245.119 91.082C245.119 90.6523 244.95 90.3431 244.611 90.1543C244.279 89.959 243.785 89.8613 243.127 89.8613H241.164V92.4395H243.186C243.745 92.4395 244.208 92.3353 244.572 92.127C244.937 91.9186 245.119 91.5703 245.119 91.082ZM244.846 86.6777C244.846 86.3392 244.712 86.0885 244.445 85.9258C244.178 85.763 243.785 85.6816 243.264 85.6816H241.164V87.8398H242.922C243.553 87.8398 244.032 87.7487 244.357 87.5664C244.683 87.3841 244.846 87.0879 244.846 86.6777ZM255.236 83.3574C256.701 83.3574 257.824 83.6764 258.605 84.3145C259.387 84.9525 259.777 85.9225 259.777 87.2246V94.5H257.697L257.121 93.0156H257.043C256.73 93.4062 256.411 93.7253 256.086 93.9727C255.76 94.2201 255.386 94.4023 254.963 94.5195C254.54 94.6367 254.025 94.6953 253.42 94.6953C252.775 94.6953 252.196 94.5716 251.682 94.3242C251.174 94.0768 250.773 93.6992 250.48 93.1914C250.188 92.6771 250.041 92.026 250.041 91.2383C250.041 90.0794 250.448 89.2266 251.262 88.6797C252.076 88.1263 253.296 87.8203 254.924 87.7617L256.818 87.7031V87.2246C256.818 86.6517 256.669 86.2318 256.369 85.9648C256.07 85.6979 255.653 85.5645 255.119 85.5645C254.592 85.5645 254.074 85.6393 253.566 85.7891C253.059 85.9388 252.551 86.1276 252.043 86.3555L251.057 84.3438C251.636 84.0378 252.284 83.7969 253 83.6211C253.723 83.4453 254.468 83.3574 255.236 83.3574ZM256.818 89.4414L255.666 89.4805C254.702 89.5065 254.032 89.679 253.654 89.998C253.283 90.3171 253.098 90.737 253.098 91.2578C253.098 91.7135 253.231 92.0391 253.498 92.2344C253.765 92.4232 254.113 92.5176 254.543 92.5176C255.181 92.5176 255.718 92.3288 256.154 91.9512C256.597 91.5736 256.818 91.0365 256.818 90.3398V89.4414ZM265.832 83.582V87.7812H269.992V83.582H272.971V94.5H269.992V89.998H265.832V94.5H262.854V83.582H265.832ZM278.977 83.582V87.8984C278.977 88.1198 278.967 88.3997 278.947 88.7383C278.934 89.0703 278.915 89.4089 278.889 89.7539C278.863 90.099 278.837 90.4082 278.811 90.6816C278.785 90.9551 278.765 91.1406 278.752 91.2383L283.791 83.582H287.375V94.5H284.494V90.1445C284.494 89.7865 284.507 89.3926 284.533 88.9629C284.559 88.5267 284.589 88.1165 284.621 87.7324C284.654 87.3483 284.676 87.0586 284.689 86.8633L279.67 94.5H276.096V83.582H278.977ZM295.012 83.377C296.021 83.377 296.89 83.5723 297.619 83.9629C298.348 84.347 298.911 84.9069 299.309 85.6426C299.706 86.3783 299.904 87.2767 299.904 88.3379V89.7832H292.863C292.896 90.623 293.146 91.2839 293.615 91.7656C294.09 92.2409 294.748 92.4785 295.588 92.4785C296.285 92.4785 296.923 92.4069 297.502 92.2637C298.081 92.1204 298.677 91.9056 299.289 91.6191V93.9238C298.749 94.1908 298.182 94.3861 297.59 94.5098C297.004 94.6335 296.291 94.6953 295.451 94.6953C294.357 94.6953 293.387 94.4935 292.541 94.0898C291.701 93.6862 291.04 93.071 290.559 92.2441C290.083 91.4173 289.846 90.3757 289.846 89.1191C289.846 87.8431 290.061 86.7819 290.49 85.9355C290.926 85.0827 291.532 84.4447 292.307 84.0215C293.081 83.5918 293.983 83.377 295.012 83.377ZM295.031 85.4961C294.452 85.4961 293.97 85.6816 293.586 86.0527C293.208 86.4238 292.99 87.0065 292.932 87.8008H297.111C297.105 87.3581 297.023 86.9642 296.867 86.6191C296.717 86.2741 296.49 86.0007 296.184 85.7988C295.884 85.597 295.5 85.4961 295.031 85.4961Z" fill="#2970DA"/>
<defs>
<clipPath id="clip0_0_147">
<rect width="32" height="32" fill="white" transform="translate(182 32.5)"/>
</clipPath>
</defs>
</svg>
