<svg width="396" height="135" viewBox="0 0 396 135" fill="none" xmlns="http://www.w3.org/2000/svg">
<rect width="396" height="135" rx="12" fill="white"/>
<g clip-path="url(#clip0_0_105)">
<path d="M191.331 41.8307V36.4974C191.331 36.1438 191.471 35.8046 191.721 35.5546C191.971 35.3045 192.31 35.1641 192.664 35.1641H209.997C210.351 35.1641 210.69 35.3045 210.94 35.5546C211.19 35.8046 211.331 36.1438 211.331 36.4974V53.8307C211.331 54.1844 211.19 54.5235 210.94 54.7735C210.69 55.0236 210.351 55.1641 209.997 55.1641H204.664V60.4881C204.664 61.2294 204.065 61.8307 203.321 61.8307H186.007C185.83 61.8309 185.656 61.7963 185.493 61.7289C185.33 61.6615 185.182 61.5626 185.057 61.4379C184.932 61.3131 184.833 61.1651 184.766 61.0021C184.698 60.8391 184.664 60.6644 184.664 60.4881L184.668 43.1734C184.668 42.4321 185.267 41.8307 186.011 41.8307H191.331ZM193.997 41.8307H203.321C204.063 41.8307 204.664 42.4294 204.664 43.1734V52.4974H208.664V37.8307H193.997V41.8307ZM193.335 56.4974L200.876 48.9547L198.991 47.0694L193.335 52.7267L190.504 49.8974L188.619 51.7827L193.335 56.4974Z" fill="#2970DA"/>
</g>
<path d="M131.125 94.5H128.098V82.7422H124.221V80.2227H135.002V82.7422H131.125V94.5ZM141.467 83.377C142.476 83.377 143.345 83.5723 144.074 83.9629C144.803 84.347 145.367 84.9069 145.764 85.6426C146.161 86.3783 146.359 87.2767 146.359 88.3379V89.7832H139.318C139.351 90.623 139.602 91.2839 140.07 91.7656C140.546 92.2409 141.203 92.4785 142.043 92.4785C142.74 92.4785 143.378 92.4069 143.957 92.2637C144.536 92.1204 145.132 91.9056 145.744 91.6191V93.9238C145.204 94.1908 144.637 94.3861 144.045 94.5098C143.459 94.6335 142.746 94.6953 141.906 94.6953C140.812 94.6953 139.842 94.4935 138.996 94.0898C138.156 93.6862 137.495 93.071 137.014 92.2441C136.538 91.4173 136.301 90.3757 136.301 89.1191C136.301 87.8431 136.516 86.7819 136.945 85.9355C137.382 85.0827 137.987 84.4447 138.762 84.0215C139.536 83.5918 140.438 83.377 141.467 83.377ZM141.486 85.4961C140.907 85.4961 140.425 85.6816 140.041 86.0527C139.663 86.4238 139.445 87.0065 139.387 87.8008H143.566C143.56 87.3581 143.479 86.9642 143.322 86.6191C143.173 86.2741 142.945 86.0007 142.639 85.7988C142.339 85.597 141.955 85.4961 141.486 85.4961ZM153.215 94.6953C152.134 94.6953 151.213 94.5 150.451 94.1094C149.689 93.7122 149.11 93.1003 148.713 92.2734C148.316 91.4466 148.117 90.3887 148.117 89.0996C148.117 87.765 148.342 86.6777 148.791 85.8379C149.247 84.9915 149.875 84.3698 150.676 83.9727C151.483 83.5755 152.417 83.377 153.479 83.377C154.234 83.377 154.885 83.4518 155.432 83.6016C155.985 83.7448 156.467 83.9173 156.877 84.1191L155.998 86.4238C155.529 86.235 155.093 86.082 154.689 85.9648C154.286 85.8411 153.882 85.7793 153.479 85.7793C152.958 85.7793 152.525 85.903 152.18 86.1504C151.835 86.3913 151.577 86.7559 151.408 87.2441C151.239 87.7324 151.154 88.3444 151.154 89.0801C151.154 89.8027 151.245 90.4017 151.428 90.877C151.61 91.3522 151.874 91.707 152.219 91.9414C152.564 92.1693 152.984 92.2832 153.479 92.2832C154.097 92.2832 154.647 92.2018 155.129 92.0391C155.611 91.8698 156.079 91.6354 156.535 91.3359V93.8848C156.079 94.1712 155.601 94.3763 155.1 94.5C154.605 94.6302 153.977 94.6953 153.215 94.6953ZM168.107 85.8184H164.533V94.5H161.555V85.8184H157.971V83.582H168.107V85.8184ZM173.029 83.582V87.8984C173.029 88.1198 173.02 88.3997 173 88.7383C172.987 89.0703 172.967 89.4089 172.941 89.7539C172.915 90.099 172.889 90.4082 172.863 90.6816C172.837 90.9551 172.818 91.1406 172.805 91.2383L177.844 83.582H181.428V94.5H178.547V90.1445C178.547 89.7865 178.56 89.3926 178.586 88.9629C178.612 88.5267 178.641 88.1165 178.674 87.7324C178.706 87.3483 178.729 87.0586 178.742 86.8633L173.723 94.5H170.148V83.582H173.029ZM190.637 83.377C191.867 83.377 192.86 83.8555 193.615 84.8125C194.377 85.7695 194.758 87.1725 194.758 89.0215C194.758 90.2585 194.579 91.3001 194.221 92.1465C193.863 92.9863 193.368 93.6211 192.736 94.0508C192.105 94.4805 191.379 94.6953 190.559 94.6953C190.031 94.6953 189.579 94.6302 189.201 94.5C188.824 94.3633 188.501 94.1908 188.234 93.9824C187.967 93.7676 187.736 93.5397 187.541 93.2988H187.385C187.437 93.5592 187.476 93.8262 187.502 94.0996C187.528 94.373 187.541 94.64 187.541 94.9004V99.3047H184.562V83.582H186.984L187.404 84.998H187.541C187.736 84.7051 187.974 84.4349 188.254 84.1875C188.534 83.9401 188.869 83.7448 189.26 83.6016C189.657 83.4518 190.116 83.377 190.637 83.377ZM189.68 85.7598C189.159 85.7598 188.745 85.8672 188.439 86.082C188.133 86.2969 187.909 86.6191 187.766 87.0488C187.629 87.4785 187.554 88.0221 187.541 88.6797V89.002C187.541 89.7051 187.606 90.3008 187.736 90.7891C187.873 91.2773 188.098 91.6484 188.41 91.9023C188.729 92.1562 189.165 92.2832 189.719 92.2832C190.174 92.2832 190.549 92.1562 190.842 91.9023C191.135 91.6484 191.353 91.2773 191.496 90.7891C191.646 90.2943 191.721 89.6921 191.721 88.9824C191.721 87.9147 191.555 87.1107 191.223 86.5703C190.891 86.0299 190.376 85.7598 189.68 85.7598ZM207.141 89.0215C207.141 89.9329 207.017 90.7402 206.77 91.4434C206.529 92.1465 206.174 92.7422 205.705 93.2305C205.243 93.7122 204.683 94.0768 204.025 94.3242C203.374 94.5716 202.639 94.6953 201.818 94.6953C201.05 94.6953 200.344 94.5716 199.699 94.3242C199.061 94.0768 198.505 93.7122 198.029 93.2305C197.561 92.7422 197.196 92.1465 196.936 91.4434C196.682 90.7402 196.555 89.9329 196.555 89.0215C196.555 87.8105 196.77 86.7852 197.199 85.9453C197.629 85.1055 198.241 84.4674 199.035 84.0312C199.829 83.5951 200.777 83.377 201.877 83.377C202.899 83.377 203.804 83.5951 204.592 84.0312C205.386 84.4674 206.008 85.1055 206.457 85.9453C206.913 86.7852 207.141 87.8105 207.141 89.0215ZM199.592 89.0215C199.592 89.7376 199.67 90.3398 199.826 90.8281C199.982 91.3164 200.227 91.6842 200.559 91.9316C200.891 92.179 201.324 92.3027 201.857 92.3027C202.385 92.3027 202.811 92.179 203.137 91.9316C203.469 91.6842 203.71 91.3164 203.859 90.8281C204.016 90.3398 204.094 89.7376 204.094 89.0215C204.094 88.2988 204.016 87.6999 203.859 87.2246C203.71 86.7428 203.469 86.3815 203.137 86.1406C202.805 85.8997 202.372 85.7793 201.838 85.7793C201.05 85.7793 200.477 86.0495 200.119 86.5898C199.768 87.1302 199.592 87.9408 199.592 89.0215ZM219.279 86.4434C219.279 87.0293 219.094 87.5306 218.723 87.9473C218.358 88.3574 217.818 88.6211 217.102 88.7383V88.8164C217.857 88.9076 218.465 89.1712 218.928 89.6074C219.39 90.0371 219.621 90.5807 219.621 91.2383C219.621 91.8633 219.458 92.4232 219.133 92.918C218.807 93.4062 218.29 93.7936 217.58 94.0801C216.87 94.36 215.943 94.5 214.797 94.5H209.602V83.582H214.797C215.65 83.582 216.415 83.6732 217.092 83.8555C217.769 84.0312 218.303 84.3275 218.693 84.7441C219.084 85.1608 219.279 85.7272 219.279 86.4434ZM216.535 91.082C216.535 90.6523 216.366 90.3431 216.027 90.1543C215.695 89.959 215.201 89.8613 214.543 89.8613H212.58V92.4395H214.602C215.161 92.4395 215.624 92.3353 215.988 92.127C216.353 91.9186 216.535 91.5703 216.535 91.082ZM216.262 86.6777C216.262 86.3392 216.128 86.0885 215.861 85.9258C215.594 85.763 215.201 85.6816 214.68 85.6816H212.58V87.8398H214.338C214.969 87.8398 215.448 87.7487 215.773 87.5664C216.099 87.3841 216.262 87.0879 216.262 86.6777ZM226.652 83.3574C228.117 83.3574 229.24 83.6764 230.021 84.3145C230.803 84.9525 231.193 85.9225 231.193 87.2246V94.5H229.113L228.537 93.0156H228.459C228.146 93.4062 227.827 93.7253 227.502 93.9727C227.176 94.2201 226.802 94.4023 226.379 94.5195C225.956 94.6367 225.441 94.6953 224.836 94.6953C224.191 94.6953 223.612 94.5716 223.098 94.3242C222.59 94.0768 222.189 93.6992 221.896 93.1914C221.604 92.6771 221.457 92.026 221.457 91.2383C221.457 90.0794 221.864 89.2266 222.678 88.6797C223.492 88.1263 224.712 87.8203 226.34 87.7617L228.234 87.7031V87.2246C228.234 86.6517 228.085 86.2318 227.785 85.9648C227.486 85.6979 227.069 85.5645 226.535 85.5645C226.008 85.5645 225.49 85.6393 224.982 85.7891C224.475 85.9388 223.967 86.1276 223.459 86.3555L222.473 84.3438C223.052 84.0378 223.7 83.7969 224.416 83.6211C225.139 83.4453 225.884 83.3574 226.652 83.3574ZM228.234 89.4414L227.082 89.4805C226.118 89.5065 225.448 89.679 225.07 89.998C224.699 90.3171 224.514 90.737 224.514 91.2578C224.514 91.7135 224.647 92.0391 224.914 92.2344C225.181 92.4232 225.529 92.5176 225.959 92.5176C226.597 92.5176 227.134 92.3288 227.57 91.9512C228.013 91.5736 228.234 91.0365 228.234 90.3398V89.4414ZM237.248 83.582V87.7812H241.408V83.582H244.387V94.5H241.408V89.998H237.248V94.5H234.27V83.582H237.248ZM250.393 83.582V87.8984C250.393 88.1198 250.383 88.3997 250.363 88.7383C250.35 89.0703 250.331 89.4089 250.305 89.7539C250.279 90.099 250.253 90.4082 250.227 90.6816C250.201 90.9551 250.181 91.1406 250.168 91.2383L255.207 83.582H258.791V94.5H255.91V90.1445C255.91 89.7865 255.923 89.3926 255.949 88.9629C255.975 88.5267 256.005 88.1165 256.037 87.7324C256.07 87.3483 256.092 87.0586 256.105 86.8633L251.086 94.5H247.512V83.582H250.393ZM266.428 83.377C267.437 83.377 268.306 83.5723 269.035 83.9629C269.764 84.347 270.327 84.9069 270.725 85.6426C271.122 86.3783 271.32 87.2767 271.32 88.3379V89.7832H264.279C264.312 90.623 264.562 91.2839 265.031 91.7656C265.507 92.2409 266.164 92.4785 267.004 92.4785C267.701 92.4785 268.339 92.4069 268.918 92.2637C269.497 92.1204 270.093 91.9056 270.705 91.6191V93.9238C270.165 94.1908 269.598 94.3861 269.006 94.5098C268.42 94.6335 267.707 94.6953 266.867 94.6953C265.773 94.6953 264.803 94.4935 263.957 94.0898C263.117 93.6862 262.456 93.071 261.975 92.2441C261.499 91.4173 261.262 90.3757 261.262 89.1191C261.262 87.8431 261.477 86.7819 261.906 85.9355C262.342 85.0827 262.948 84.4447 263.723 84.0215C264.497 83.5918 265.399 83.377 266.428 83.377ZM266.447 85.4961C265.868 85.4961 265.386 85.6816 265.002 86.0527C264.624 86.4238 264.406 87.0065 264.348 87.8008H268.527C268.521 87.3581 268.439 86.9642 268.283 86.6191C268.133 86.2741 267.906 86.0007 267.6 85.7988C267.3 85.597 266.916 85.4961 266.447 85.4961Z" fill="#2970DA"/>
<defs>
<clipPath id="clip0_0_105">
<rect width="32" height="32" fill="white" transform="translate(182 32.5)"/>
</clipPath>
</defs>
</svg>
