<svg width="31" height="27" viewBox="0 0 31 27" fill="none" xmlns="http://www.w3.org/2000/svg">
<path d="M2.16683 11.0001H6.16683V27.0001H2.16683C1.81321 27.0001 1.47407 26.8597 1.22402 26.6096C0.973972 26.3596 0.833496 26.0204 0.833496 25.6668V12.3335C0.833496 11.9799 0.973972 11.6407 1.22402 11.3907C1.47407 11.1406 1.81321 11.0001 2.16683 11.0001ZM9.22416 9.27615L17.7575 0.742815C17.8709 0.629074 18.0216 0.560104 18.1818 0.548591C18.342 0.537077 18.501 0.583794 18.6295 0.680149L19.7668 1.53348C20.0827 1.77061 20.3213 2.09595 20.4525 2.46849C20.5837 2.84103 20.6017 3.24408 20.5042 3.62682L18.9668 9.66681H27.5002C28.2074 9.66681 28.8857 9.94777 29.3858 10.4479C29.8859 10.948 30.1668 11.6262 30.1668 12.3335V15.1388C30.1672 15.4873 30.0992 15.8325 29.9668 16.1548L25.8402 26.1748C25.7395 26.4191 25.5685 26.628 25.3489 26.7749C25.1293 26.9219 24.871 27.0003 24.6068 27.0001H10.1668C9.81321 27.0001 9.47407 26.8597 9.22402 26.6096C8.97397 26.3596 8.8335 26.0204 8.8335 25.6668V10.2188C8.83357 9.86522 8.9741 9.52614 9.22416 9.27615Z" fill="#2970DA"/>
</svg>
