<svg width="28" height="28" viewBox="0 0 28 28" fill="none" xmlns="http://www.w3.org/2000/svg">
<path d="M16.6665 0.666505C19.1064 0.665341 21.473 1.50073 23.3716 3.03334C25.2701 4.56595 26.5859 6.70314 27.0993 9.08846C27.6128 11.4738 27.293 13.963 26.1932 16.1411C25.0934 18.3191 23.2801 20.0543 21.0558 21.0572C20.3448 22.629 19.2631 24.005 17.9036 25.0671C16.5441 26.1291 14.9472 26.8456 13.25 27.155C11.5527 27.4643 9.80579 27.3574 8.15894 26.8434C6.5121 26.3294 5.01451 25.4236 3.79461 24.2037C2.5747 22.9838 1.6689 21.4862 1.15488 19.8394C0.640852 18.1925 0.533949 16.4456 0.843335 14.7483C1.15272 13.0511 1.86916 11.4542 2.93122 10.0947C3.99327 8.73514 5.36924 7.6535 6.94112 6.9425C7.78665 5.07169 9.1539 3.48451 10.8789 2.37131C12.6039 1.25812 14.6134 0.666188 16.6665 0.666505ZM12.6665 9.99984H9.99979V11.3332C9.13327 11.3311 8.29999 11.6665 7.67657 12.2683C7.05314 12.8701 6.68858 13.6911 6.66014 14.5571C6.63171 15.4232 6.94164 16.2662 7.52424 16.9077C8.10685 17.5491 8.91634 17.9384 9.78112 17.9932L9.99979 17.9998H12.6665L12.7865 18.0105C12.9402 18.0383 13.0792 18.1193 13.1794 18.2392C13.2795 18.359 13.3343 18.5103 13.3343 18.6665C13.3343 18.8227 13.2795 18.974 13.1794 19.0939C13.0792 19.2137 12.9402 19.2947 12.7865 19.3225L12.6665 19.3332H7.33312V21.9998H9.99979V23.3332H12.6665V21.9998C13.533 22.0019 14.3663 21.6665 14.9897 21.0647C15.6131 20.4629 15.9777 19.6419 16.0061 18.7759C16.0345 17.9098 15.7246 17.0668 15.142 16.4253C14.5594 15.7839 13.7499 15.3946 12.8851 15.3398L12.6665 15.3332H9.99979L9.87979 15.3225C9.72608 15.2947 9.58702 15.2137 9.48689 15.0939C9.38675 14.974 9.3319 14.8227 9.3319 14.6665C9.3319 14.5103 9.38675 14.359 9.48689 14.2392C9.58702 14.1193 9.72608 14.0383 9.87979 14.0105L9.99979 13.9998H15.3331V11.3332H12.6665V9.99984ZM16.6665 3.33317C15.5367 3.33185 14.4195 3.57043 13.3889 4.03312C12.3582 4.49581 11.4376 5.17208 10.6878 6.01717C12.1948 5.92569 13.7041 6.15516 15.1158 6.69043C16.5275 7.2257 17.8095 8.05456 18.877 9.12221C19.9446 10.1899 20.7733 11.472 21.3084 12.8837C21.8435 14.2955 22.0728 15.8048 21.9811 17.3118C23.1934 16.234 24.0494 14.8131 24.4355 13.2376C24.8217 11.6621 24.7198 10.0064 24.1433 8.49013C23.5668 6.97388 22.543 5.66869 21.2077 4.74768C19.8724 3.82667 18.2886 3.33336 16.6665 3.33317Z" fill="#2970DA"/>
</svg>
