<svg width="32" height="30" viewBox="0 0 32 30" fill="none" xmlns="http://www.w3.org/2000/svg">
<path d="M16 0.666504L21.6347 8.9105L31.2174 11.7225L25.1174 19.6292L25.404 29.6105L16 26.2532L6.59605 29.6105L6.88272 19.6292L0.782715 11.7225L10.3654 8.9105L16 0.666504ZM13.3334 15.9998H10.6667C10.6667 17.3912 11.2104 18.7276 12.1819 19.7237C13.1534 20.7198 14.4757 21.2968 15.8667 21.3316C17.2576 21.3664 18.6071 20.8562 19.6272 19.9099C20.6473 18.9636 21.2572 17.6562 21.3267 16.2665L21.3334 15.9998H18.6667C18.6698 16.6918 18.4038 17.3579 17.9249 17.8574C17.446 18.3568 16.7916 18.6506 16.1001 18.6766C15.4086 18.7025 14.7341 18.4587 14.2191 17.9965C13.7041 17.5344 13.3889 16.8901 13.34 16.1998L13.3334 15.9998Z" fill="#2970DA"/>
</svg>
