<svg width="36" height="36" viewBox="0 0 36 36" fill="none" xmlns="http://www.w3.org/2000/svg">
<path fill-rule="evenodd" clip-rule="evenodd" d="M3 16.0049C3 8.82249 8.76051 3 15.8665 3C19.2789 3 22.5515 4.37015 24.9644 6.80904C27.3773 9.24793 28.7329 12.5558 28.7329 16.0049C28.7329 23.1873 22.9724 29.0098 15.8665 29.0098C8.76051 29.0098 3 23.1873 3 16.0049ZM6.75018 15.75C6.75018 10.7795 10.7796 6.75005 15.7502 6.75005C18.1371 6.75005 20.4263 7.69826 22.1141 9.38609C23.802 11.0739 24.7502 13.3631 24.7502 15.75C24.7502 20.7206 20.7207 24.75 15.7502 24.75C10.7796 24.75 6.75018 20.7206 6.75018 15.75Z" fill="#2970DA"/>
<rect x="24.2188" y="22.4922" width="11.2906" height="3.86345" transform="rotate(45 24.2188 22.4922)" fill="#2970DA"/>
</svg>
