<svg width="36" height="36" viewBox="0 0 36 36" fill="none" xmlns="http://www.w3.org/2000/svg">
<g clip-path="url(#clip0_0_364)">
<path d="M22.5015 7.5H25.5015C26.2972 7.5 27.0602 7.81607 27.6228 8.37868C28.1854 8.94129 28.5015 9.70435 28.5015 10.5V22.755C29.5028 23.1089 30.3467 23.8053 30.8841 24.7212C31.4214 25.6371 31.6177 26.7135 31.4382 27.7602C31.2587 28.8068 30.715 29.7563 29.9031 30.4408C29.0912 31.1253 28.0634 31.5007 27.0015 31.5007C25.9396 31.5007 24.9118 31.1253 24.1 30.4408C23.2881 29.7563 22.7443 28.8068 22.5648 27.7602C22.3853 26.7135 22.5816 25.6371 23.119 24.7212C23.6564 23.8053 24.5003 23.1089 25.5015 22.755V10.5H22.5015V15L15.7515 9L22.5015 3V7.5ZM7.50151 13.245C6.50027 12.8911 5.65637 12.1947 5.11897 11.2788C4.58157 10.3629 4.38528 9.28646 4.56479 8.23982C4.74431 7.19317 5.28806 6.24368 6.09995 5.55919C6.91184 4.8747 7.93958 4.49927 9.00151 4.49927C10.0634 4.49927 11.0912 4.8747 11.9031 5.55919C12.715 6.24368 13.2587 7.19317 13.4382 8.23982C13.6177 9.28646 13.4214 10.3629 12.884 11.2788C12.3467 12.1947 11.5027 12.8911 10.5015 13.245V22.755C11.5027 23.1089 12.3467 23.8053 12.884 24.7212C13.4214 25.6371 13.6177 26.7135 13.4382 27.7602C13.2587 28.8068 12.715 29.7563 11.9031 30.4408C11.0912 31.1253 10.0634 31.5007 9.00151 31.5007C7.93958 31.5007 6.91184 31.1253 6.09995 30.4408C5.28806 29.7563 4.74431 28.8068 4.56479 27.7602C4.38528 26.7135 4.58157 25.6371 5.11897 24.7212C5.65637 23.8053 6.50027 23.1089 7.50151 22.755V13.245Z" fill="#2970DA"/>
</g>
<defs>
<clipPath id="clip0_0_364">
<rect width="36" height="36" fill="white"/>
</clipPath>
</defs>
</svg>
