<svg width="36" height="36" viewBox="0 0 36 36" fill="none" xmlns="http://www.w3.org/2000/svg">
<g clip-path="url(#clip0_0_392)">
<path d="M1.77344 18C3.18344 10.32 9.91394 4.5 18.0019 4.5C26.0899 4.5 32.8189 10.32 34.2304 18C32.8204 25.68 26.0899 31.5 18.0019 31.5C9.91394 31.5 3.18494 25.68 1.77344 18V18ZM18.0019 25.5C19.9911 25.5 21.8987 24.7098 23.3052 23.3033C24.7118 21.8968 25.5019 19.9891 25.5019 18C25.5019 16.0109 24.7118 14.1032 23.3052 12.6967C21.8987 11.2902 19.9911 10.5 18.0019 10.5C16.0128 10.5 14.1052 11.2902 12.6986 12.6967C11.2921 14.1032 10.5019 16.0109 10.5019 18C10.5019 19.9891 11.2921 21.8968 12.6986 23.3033C14.1052 24.7098 16.0128 25.5 18.0019 25.5ZM18.0019 22.5C16.8085 22.5 15.6639 22.0259 14.82 21.182C13.976 20.3381 13.5019 19.1935 13.5019 18C13.5019 16.8065 13.976 15.6619 14.82 14.818C15.6639 13.9741 16.8085 13.5 18.0019 13.5C19.1954 13.5 20.34 13.9741 21.1839 14.818C22.0278 15.6619 22.5019 16.8065 22.5019 18C22.5019 19.1935 22.0278 20.3381 21.1839 21.182C20.34 22.0259 19.1954 22.5 18.0019 22.5Z" fill="#2970DA"/>
</g>
<defs>
<clipPath id="clip0_0_392">
<rect width="36" height="36" fill="white"/>
</clipPath>
</defs>
</svg>
