<svg width="456" height="400" viewBox="0 0 456 400" fill="none" xmlns="http://www.w3.org/2000/svg">
<path d="M0 12C0 5.37257 5.37258 0 12 0H443.667C450.294 0 455.667 5.37258 455.667 12V388C455.667 394.627 450.294 400 443.667 400H12C5.37257 400 0 394.627 0 388V12Z" fill="#F4F4F4"/>
<path d="M49.0547 42.292C49.0547 44.0205 48.918 45.5635 48.6445 46.9209C48.3809 48.2783 47.9512 49.4307 47.3555 50.3779C46.7695 51.3252 45.998 52.0479 45.041 52.5459C44.084 53.0439 42.9219 53.293 41.5547 53.293C39.8359 53.293 38.4248 52.8584 37.3213 51.9893C36.2178 51.1104 35.4023 49.8506 34.875 48.21C34.3477 46.5596 34.084 44.5869 34.084 42.292C34.084 39.9775 34.3232 38 34.8018 36.3594C35.29 34.709 36.0811 33.4443 37.1748 32.5654C38.2686 31.6865 39.7285 31.2471 41.5547 31.2471C43.2637 31.2471 44.6699 31.6865 45.7734 32.5654C46.8867 33.4346 47.7119 34.6943 48.249 36.3447C48.7861 37.9854 49.0547 39.9678 49.0547 42.292ZM38.5811 42.292C38.5811 43.9229 38.6689 45.2852 38.8447 46.3789C39.0303 47.4629 39.3379 48.2783 39.7676 48.8252C40.1973 49.3721 40.793 49.6455 41.5547 49.6455C42.3066 49.6455 42.8975 49.377 43.3271 48.8398C43.7666 48.293 44.0791 47.4775 44.2646 46.3936C44.4502 45.2998 44.543 43.9326 44.543 42.292C44.543 40.6611 44.4502 39.2988 44.2646 38.2051C44.0791 37.1113 43.7666 36.291 43.3271 35.7441C42.8975 35.1875 42.3066 34.9092 41.5547 34.9092C40.793 34.9092 40.1973 35.1875 39.7676 35.7441C39.3379 36.291 39.0303 37.1113 38.8447 38.2051C38.6689 39.2988 38.5811 40.6611 38.5811 42.292ZM69.7236 53L64.5674 36.1982H64.4355C64.4551 36.5986 64.4844 37.2041 64.5234 38.0146C64.5723 38.8154 64.6162 39.6699 64.6553 40.5781C64.6943 41.4863 64.7139 42.3066 64.7139 43.0391V53H60.6562V31.584H66.8379L71.9062 47.9609H71.9941L77.3701 31.584H83.5518V53H79.3184V42.8633C79.3184 42.1895 79.3281 41.4131 79.3477 40.5342C79.377 39.6553 79.4111 38.8203 79.4502 38.0293C79.4893 37.2285 79.5186 36.6279 79.5381 36.2275H79.4062L73.8838 53H69.7236ZM103.488 44.7822C103.488 46.1494 103.303 47.3604 102.932 48.415C102.57 49.4697 102.038 50.3633 101.335 51.0957C100.642 51.8184 99.8018 52.3652 98.8154 52.7363C97.8389 53.1074 96.7354 53.293 95.5049 53.293C94.3525 53.293 93.293 53.1074 92.3262 52.7363C91.3691 52.3652 90.5342 51.8184 89.8213 51.0957C89.1182 50.3633 88.5713 49.4697 88.1807 48.415C87.7998 47.3604 87.6094 46.1494 87.6094 44.7822C87.6094 42.9658 87.9316 41.4277 88.5762 40.168C89.2207 38.9082 90.1387 37.9512 91.3301 37.2969C92.5215 36.6426 93.9424 36.3154 95.5928 36.3154C97.126 36.3154 98.4834 36.6426 99.665 37.2969C100.856 37.9512 101.789 38.9082 102.463 40.168C103.146 41.4277 103.488 42.9658 103.488 44.7822ZM92.165 44.7822C92.165 45.8564 92.2822 46.7598 92.5166 47.4922C92.751 48.2246 93.1172 48.7764 93.6152 49.1475C94.1133 49.5186 94.7627 49.7041 95.5635 49.7041C96.3545 49.7041 96.9941 49.5186 97.4824 49.1475C97.9805 48.7764 98.3418 48.2246 98.5664 47.4922C98.8008 46.7598 98.918 45.8564 98.918 44.7822C98.918 43.6982 98.8008 42.7998 98.5664 42.0869C98.3418 41.3643 97.9805 40.8223 97.4824 40.4609C96.9844 40.0996 96.335 39.9189 95.5342 39.9189C94.3525 39.9189 93.4932 40.3242 92.9561 41.1348C92.4287 41.9453 92.165 43.1611 92.165 44.7822ZM121.901 36.623V49.7334H124.304V58.874H120.29V53H109.274V58.874H105.261V49.7334H106.638C107.36 48.6299 107.966 47.3701 108.454 45.9541C108.952 44.5381 109.353 43.0391 109.655 41.457C109.968 39.8652 110.192 38.2539 110.329 36.623H121.901ZM117.434 39.9775H114.079C113.923 41.1885 113.723 42.3604 113.479 43.4932C113.244 44.6162 112.951 45.7002 112.6 46.7451C112.248 47.7803 111.818 48.7764 111.311 49.7334H117.434V39.9775ZM124.758 36.623H129.65L132.741 45.8369C132.839 46.1299 132.922 46.4277 132.99 46.7305C133.059 47.0332 133.117 47.3457 133.166 47.668C133.215 47.9902 133.254 48.3271 133.283 48.6787H133.371C133.43 48.1514 133.508 47.6582 133.605 47.1992C133.713 46.7402 133.845 46.2861 134.001 45.8369L137.033 36.623H141.823L134.895 55.0947C134.475 56.2275 133.928 57.1699 133.254 57.9219C132.58 58.6836 131.804 59.2549 130.925 59.6357C130.056 60.0166 129.099 60.207 128.054 60.207C127.546 60.207 127.106 60.1777 126.735 60.1191C126.364 60.0703 126.047 60.0166 125.783 59.958V56.4131C125.988 56.4619 126.247 56.5059 126.56 56.5449C126.872 56.584 127.199 56.6035 127.541 56.6035C128.166 56.6035 128.703 56.4717 129.152 56.208C129.602 55.9443 129.978 55.5879 130.28 55.1387C130.583 54.6992 130.822 54.2158 130.998 53.6885L131.262 52.8828L124.758 36.623ZM158.845 53H154.377V39.9775H150.261C150.056 42.3799 149.812 44.4258 149.528 46.1152C149.245 47.8047 148.884 49.1816 148.444 50.2461C148.005 51.3008 147.458 52.0723 146.804 52.5605C146.149 53.0488 145.344 53.293 144.387 53.293C143.859 53.293 143.386 53.2539 142.966 53.1758C142.556 53.0977 142.18 52.9805 141.838 52.8242V49.25C142.053 49.3379 142.282 49.4111 142.526 49.4697C142.771 49.5186 143.02 49.543 143.273 49.543C143.557 49.543 143.825 49.4307 144.079 49.2061C144.333 48.9814 144.572 48.5957 144.797 48.0488C145.021 47.4922 145.231 46.7256 145.427 45.749C145.632 44.7725 145.817 43.5371 145.983 42.043C146.149 40.5488 146.306 38.7422 146.452 36.623H158.845V53ZM168.015 42.9512H171.164C172.844 42.9512 174.23 43.127 175.324 43.4785C176.418 43.8301 177.233 44.3672 177.771 45.0898C178.308 45.8027 178.576 46.7012 178.576 47.7852C178.576 48.8398 178.332 49.7578 177.844 50.5391C177.355 51.3203 176.579 51.9258 175.515 52.3555C174.45 52.7852 173.059 53 171.34 53H163.547V36.623H168.015V42.9512ZM174.108 47.8438C174.108 47.209 173.854 46.75 173.347 46.4668C172.839 46.1836 172.082 46.042 171.076 46.042H168.015V49.9092H171.135C172.004 49.9092 172.717 49.7529 173.273 49.4404C173.83 49.1182 174.108 48.5859 174.108 47.8438Z" fill="#2970DA"/>
<path d="M43.5371 85L42.502 81.6016H37.2969L36.2617 85H33L38.0391 70.6641H41.7402L46.7988 85H43.5371ZM41.7793 79.0625L40.7441 75.7422C40.679 75.5208 40.5911 75.2376 40.4805 74.8926C40.3763 74.541 40.2689 74.1862 40.1582 73.8281C40.054 73.4635 39.9694 73.1478 39.9043 72.8809C39.8392 73.1478 39.748 73.4798 39.6309 73.877C39.5202 74.2676 39.4128 74.6387 39.3086 74.9902C39.2044 75.3418 39.1296 75.5924 39.084 75.7422L38.0586 79.0625H41.7793ZM58.1855 74.082V82.8223H59.7871V88.916H57.1113V85H49.7676V88.916H47.0918V82.8223H48.0098C48.4915 82.0866 48.8952 81.2467 49.2207 80.3027C49.5527 79.3587 49.8197 78.3594 50.0215 77.3047C50.2298 76.2435 50.3796 75.1693 50.4707 74.082H58.1855ZM55.207 76.3184H52.9707C52.8665 77.1257 52.7331 77.9069 52.5703 78.6621C52.4141 79.4108 52.2188 80.1335 51.9844 80.8301C51.75 81.5202 51.4635 82.1842 51.125 82.8223H55.207V76.3184ZM66.125 73.8574C67.5898 73.8574 68.7129 74.1764 69.4941 74.8145C70.2754 75.4525 70.666 76.4225 70.666 77.7246V85H68.5859L68.0098 83.5156H67.9316C67.6191 83.9062 67.3001 84.2253 66.9746 84.4727C66.6491 84.7201 66.2747 84.9023 65.8516 85.0195C65.4284 85.1367 64.9141 85.1953 64.3086 85.1953C63.6641 85.1953 63.0846 85.0716 62.5703 84.8242C62.0625 84.5768 61.6621 84.1992 61.3691 83.6914C61.0762 83.1771 60.9297 82.526 60.9297 81.7383C60.9297 80.5794 61.3366 79.7266 62.1504 79.1797C62.9642 78.6263 64.1849 78.3203 65.8125 78.2617L67.707 78.2031V77.7246C67.707 77.1517 67.5573 76.7318 67.2578 76.4648C66.9583 76.1979 66.5417 76.0645 66.0078 76.0645C65.4805 76.0645 64.9629 76.1393 64.4551 76.2891C63.9473 76.4388 63.4395 76.6276 62.9316 76.8555L61.9453 74.8438C62.5247 74.5378 63.1725 74.2969 63.8887 74.1211C64.6113 73.9453 65.3568 73.8574 66.125 73.8574ZM67.707 79.9414L66.5547 79.9805C65.5911 80.0065 64.9206 80.179 64.543 80.498C64.1719 80.8171 63.9863 81.237 63.9863 81.7578C63.9863 82.2135 64.1198 82.5391 64.3867 82.7344C64.6536 82.9232 65.002 83.0176 65.4316 83.0176C66.0697 83.0176 66.6068 82.8288 67.043 82.4512C67.4857 82.0736 67.707 81.5365 67.707 80.8398V79.9414ZM83.6641 74.082V85H80.6758V76.3184H76.7207V85H73.7422V74.082H83.6641ZM95.8223 76.3184H92.248V85H89.2695V76.3184H85.6855V74.082H95.8223V76.3184ZM102.336 73.8574C103.801 73.8574 104.924 74.1764 105.705 74.8145C106.486 75.4525 106.877 76.4225 106.877 77.7246V85H104.797L104.221 83.5156H104.143C103.83 83.9062 103.511 84.2253 103.186 84.4727C102.86 84.7201 102.486 84.9023 102.062 85.0195C101.639 85.1367 101.125 85.1953 100.52 85.1953C99.875 85.1953 99.2956 85.0716 98.7812 84.8242C98.2734 84.5768 97.873 84.1992 97.5801 83.6914C97.2871 83.1771 97.1406 82.526 97.1406 81.7383C97.1406 80.5794 97.5475 79.7266 98.3613 79.1797C99.1751 78.6263 100.396 78.3203 102.023 78.2617L103.918 78.2031V77.7246C103.918 77.1517 103.768 76.7318 103.469 76.4648C103.169 76.1979 102.753 76.0645 102.219 76.0645C101.691 76.0645 101.174 76.1393 100.666 76.2891C100.158 76.4388 99.6504 76.6276 99.1426 76.8555L98.1562 74.8438C98.7357 74.5378 99.3835 74.2969 100.1 74.1211C100.822 73.9453 101.568 73.8574 102.336 73.8574ZM103.918 79.9414L102.766 79.9805C101.802 80.0065 101.132 80.179 100.754 80.498C100.383 80.8171 100.197 81.237 100.197 81.7578C100.197 82.2135 100.331 82.5391 100.598 82.7344C100.865 82.9232 101.213 83.0176 101.643 83.0176C102.281 83.0176 102.818 82.8288 103.254 82.4512C103.697 82.0736 103.918 81.5365 103.918 80.8398V79.9414ZM121.867 88.916H119.191V85H109.953V74.082H112.932V82.7637H117.287V74.082H120.275V82.8223H121.867V88.916ZM126.604 74.082V78.3984C126.604 78.6198 126.594 78.8997 126.574 79.2383C126.561 79.5703 126.542 79.9089 126.516 80.2539C126.49 80.599 126.464 80.9082 126.438 81.1816C126.411 81.4551 126.392 81.6406 126.379 81.7383L131.418 74.082H135.002V85H132.121V80.6445C132.121 80.2865 132.134 79.8926 132.16 79.4629C132.186 79.0267 132.215 78.6165 132.248 78.2324C132.281 77.8483 132.303 77.5586 132.316 77.3633L127.297 85H123.723V74.082H126.604ZM148.059 79.5215C148.059 80.4329 147.935 81.2402 147.688 81.9434C147.447 82.6465 147.092 83.2422 146.623 83.7305C146.161 84.2122 145.601 84.5768 144.943 84.8242C144.292 85.0716 143.557 85.1953 142.736 85.1953C141.968 85.1953 141.262 85.0716 140.617 84.8242C139.979 84.5768 139.423 84.2122 138.947 83.7305C138.479 83.2422 138.114 82.6465 137.854 81.9434C137.6 81.2402 137.473 80.4329 137.473 79.5215C137.473 78.3105 137.688 77.2852 138.117 76.4453C138.547 75.6055 139.159 74.9674 139.953 74.5312C140.747 74.0951 141.695 73.877 142.795 73.877C143.817 73.877 144.722 74.0951 145.51 74.5312C146.304 74.9674 146.926 75.6055 147.375 76.4453C147.831 77.2852 148.059 78.3105 148.059 79.5215ZM140.51 79.5215C140.51 80.2376 140.588 80.8398 140.744 81.3281C140.9 81.8164 141.145 82.1842 141.477 82.4316C141.809 82.679 142.242 82.8027 142.775 82.8027C143.303 82.8027 143.729 82.679 144.055 82.4316C144.387 82.1842 144.628 81.8164 144.777 81.3281C144.934 80.8398 145.012 80.2376 145.012 79.5215C145.012 78.7988 144.934 78.1999 144.777 77.7246C144.628 77.2428 144.387 76.8815 144.055 76.6406C143.723 76.3997 143.29 76.2793 142.756 76.2793C141.968 76.2793 141.395 76.5495 141.037 77.0898C140.686 77.6302 140.51 78.4408 140.51 79.5215ZM153.498 74.082V78.2812H157.658V74.082H160.637V85H157.658V80.498H153.498V85H150.52V74.082H153.498ZM166.74 74.082V78.2812H170.9V74.082H173.879V85H170.9V80.498H166.74V85H163.762V74.082H166.74ZM177.004 85V74.082H179.982V78.3008H181.418C182.531 78.3008 183.449 78.418 184.172 78.6523C184.901 78.8867 185.441 79.2448 185.793 79.7266C186.145 80.2018 186.32 80.8008 186.32 81.5234C186.32 82.2266 186.158 82.8385 185.832 83.3594C185.507 83.8802 184.992 84.2839 184.289 84.5703C183.586 84.8568 182.665 85 181.525 85H177.004ZM179.982 82.9395H181.359C181.939 82.9395 182.414 82.8353 182.785 82.627C183.156 82.4121 183.342 82.0573 183.342 81.5625C183.342 81.1393 183.173 80.8333 182.834 80.6445C182.495 80.4557 181.991 80.3613 181.32 80.3613H179.982V82.9395ZM187.902 85V74.082H190.881V85H187.902ZM196.896 74.082V78.3984C196.896 78.6198 196.887 78.8997 196.867 79.2383C196.854 79.5703 196.835 79.9089 196.809 80.2539C196.783 80.599 196.757 80.9082 196.73 81.1816C196.704 81.4551 196.685 81.6406 196.672 81.7383L201.711 74.082H205.295V85H202.414V80.6445C202.414 80.2865 202.427 79.8926 202.453 79.4629C202.479 79.0267 202.508 78.6165 202.541 78.2324C202.574 77.8483 202.596 77.5586 202.609 77.3633L197.59 85H194.016V74.082H196.896ZM204.475 69.3848C204.403 70.0749 204.208 70.6836 203.889 71.2109C203.57 71.7383 203.072 72.1484 202.395 72.4414C201.717 72.7344 200.806 72.8809 199.66 72.8809C198.482 72.8809 197.564 72.7409 196.906 72.4609C196.249 72.1745 195.78 71.7708 195.5 71.25C195.22 70.7227 195.051 70.1009 194.992 69.3848H197.658C197.717 70.1204 197.902 70.6087 198.215 70.8496C198.527 71.084 199.029 71.2012 199.719 71.2012C200.292 71.2012 200.76 71.071 201.125 70.8105C201.49 70.5501 201.708 70.0749 201.779 69.3848H204.475Z" fill="black"/>
<path d="M46.0957 152.558C46.0957 153.548 45.9697 154.45 45.7178 155.265C45.4717 156.073 45.0996 156.771 44.6016 157.356C44.1035 157.937 43.4795 158.385 42.7295 158.701C41.9795 159.018 41.1006 159.176 40.0928 159.176C39.0674 159.176 38.1768 159.018 37.4209 158.701C36.6709 158.385 36.0469 157.934 35.5488 157.348C35.0566 156.762 34.6875 156.062 34.4414 155.247C34.1953 154.433 34.0723 153.53 34.0723 152.54C34.0723 151.216 34.2891 150.062 34.7227 149.077C35.1621 148.087 35.8271 147.319 36.7178 146.774C37.6143 146.224 38.7451 145.948 40.1104 145.948C41.4463 145.948 42.5566 146.221 43.4414 146.766C44.3262 147.311 44.9883 148.078 45.4277 149.068C45.873 150.053 46.0957 151.216 46.0957 152.558ZM36.2871 152.558C36.2871 153.548 36.4219 154.406 36.6914 155.133C36.9609 155.854 37.374 156.41 37.9307 156.803C38.4932 157.189 39.2139 157.383 40.0928 157.383C40.9775 157.383 41.6982 157.189 42.2549 156.803C42.8115 156.41 43.2217 155.854 43.4854 155.133C43.749 154.406 43.8809 153.548 43.8809 152.558C43.8809 151.052 43.5791 149.874 42.9756 149.024C42.3779 148.169 41.4229 147.741 40.1104 147.741C39.2314 147.741 38.5078 147.935 37.9395 148.321C37.377 148.708 36.9609 149.262 36.6914 149.982C36.4219 150.697 36.2871 151.556 36.2871 152.558ZM50.6287 149.271V153.182H55.1815V149.271H57.2557V159H55.1815V154.799H50.6287V159H48.5545V149.271H50.6287ZM59.5651 153.164C59.5651 151.752 59.7204 150.551 60.0309 149.561C60.3415 148.57 60.8307 147.776 61.4987 147.179C62.1667 146.581 63.0339 146.174 64.1003 145.957C64.7917 145.799 65.4948 145.664 66.2096 145.553C66.9245 145.441 67.6393 145.333 68.3542 145.228L68.6354 147.047C68.3014 147.088 67.944 147.138 67.5632 147.196C67.1823 147.249 66.7985 147.305 66.4118 147.363C66.0309 147.422 65.6647 147.483 65.3132 147.548C64.9675 147.606 64.6569 147.665 64.3815 147.724C63.8307 147.841 63.3649 148.034 62.9841 148.304C62.6091 148.567 62.3161 148.954 62.1052 149.464C61.8942 149.974 61.7682 150.653 61.7272 151.503H61.8415C61.9997 151.263 62.2194 151.022 62.5007 150.782C62.7819 150.542 63.1218 150.343 63.5202 150.185C63.9245 150.021 64.3845 149.938 64.9001 149.938C65.7087 149.938 66.3942 150.108 66.9567 150.448C67.5251 150.788 67.9557 151.28 68.2487 151.925C68.5475 152.569 68.697 153.346 68.697 154.254C68.697 155.338 68.5036 156.246 68.1169 156.979C67.736 157.705 67.2028 158.253 66.5173 158.622C65.8317 158.991 65.0319 159.176 64.1179 159.176C63.4147 159.176 62.7819 159.044 62.2194 158.78C61.6628 158.517 61.1852 158.13 60.7868 157.62C60.3942 157.104 60.0925 156.475 59.8815 155.73C59.6706 154.98 59.5651 154.125 59.5651 153.164ZM64.2585 157.479C64.7272 157.479 65.1315 157.38 65.4714 157.181C65.8171 156.981 66.0837 156.659 66.2712 156.214C66.4645 155.769 66.5612 155.18 66.5612 154.447C66.5612 153.545 66.3971 152.836 66.069 152.32C65.7468 151.799 65.2136 151.538 64.4694 151.538C64.0124 151.538 63.5934 151.641 63.2126 151.846C62.8317 152.051 62.5095 152.291 62.2458 152.566C61.9821 152.836 61.7946 153.073 61.6833 153.278C61.6833 153.812 61.7214 154.327 61.7975 154.825C61.8796 155.323 62.0143 155.774 62.2018 156.179C62.3952 156.577 62.6589 156.894 62.9929 157.128C63.3268 157.362 63.7487 157.479 64.2585 157.479ZM79.5933 154.113C79.5933 154.922 79.4878 155.64 79.2769 156.267C79.0659 156.894 78.7583 157.424 78.354 157.857C77.9497 158.285 77.4634 158.613 76.895 158.842C76.3267 159.064 75.6851 159.176 74.9702 159.176C74.3023 159.176 73.69 159.064 73.1333 158.842C72.5767 158.613 72.0933 158.285 71.6831 157.857C71.2788 157.424 70.9654 156.894 70.7427 156.267C70.52 155.64 70.4087 154.922 70.4087 154.113C70.4087 153.041 70.5933 152.133 70.9624 151.389C71.3374 150.639 71.8706 150.067 72.562 149.675C73.2534 149.282 74.0767 149.086 75.0318 149.086C75.9282 149.086 76.7193 149.282 77.4048 149.675C78.0904 150.067 78.6265 150.639 79.0132 151.389C79.3999 152.139 79.5933 153.047 79.5933 154.113ZM72.5357 154.113C72.5357 154.822 72.6206 155.429 72.7905 155.933C72.9663 156.437 73.2359 156.823 73.5991 157.093C73.9624 157.356 74.4312 157.488 75.0054 157.488C75.5796 157.488 76.0484 157.356 76.4116 157.093C76.7749 156.823 77.0415 156.437 77.2114 155.933C77.3814 155.429 77.4663 154.822 77.4663 154.113C77.4663 153.404 77.3814 152.804 77.2114 152.312C77.0415 151.813 76.7749 151.436 76.4116 151.178C76.0484 150.914 75.5767 150.782 74.9966 150.782C74.1411 150.782 73.5171 151.069 73.1245 151.644C72.732 152.218 72.5357 153.041 72.5357 154.113ZM86.8685 149.086C88.0228 149.086 88.9486 149.508 89.6459 150.352C90.349 151.195 90.7005 152.449 90.7005 154.113C90.7005 155.215 90.5365 156.144 90.2084 156.899C89.8861 157.649 89.432 158.218 88.8461 158.604C88.266 158.985 87.5892 159.176 86.8158 159.176C86.3236 159.176 85.8959 159.111 85.5326 158.982C85.1693 158.854 84.8587 158.687 84.6009 158.481C84.3431 158.271 84.1263 158.042 83.9505 157.796H83.8275C83.8568 158.03 83.8832 158.291 83.9066 158.578C83.9359 158.859 83.9505 159.117 83.9505 159.352V163.315H81.8763V149.271H83.5638L83.8539 150.615H83.9505C84.1322 150.34 84.3519 150.085 84.6097 149.851C84.8734 149.616 85.1898 149.432 85.5589 149.297C85.9339 149.156 86.3705 149.086 86.8685 149.086ZM86.3148 150.773C85.7464 150.773 85.2894 150.888 84.9437 151.116C84.6039 151.339 84.3548 151.676 84.1966 152.127C84.0443 152.578 83.9623 153.144 83.9505 153.823V154.113C83.9505 154.834 84.0238 155.446 84.1703 155.95C84.3226 156.448 84.5716 156.829 84.9173 157.093C85.2689 157.351 85.7435 157.479 86.3412 157.479C86.8451 157.479 87.2611 157.342 87.5892 157.066C87.9232 156.791 88.1722 156.398 88.3363 155.889C88.5004 155.379 88.5824 154.778 88.5824 154.087C88.5824 153.038 88.3949 152.224 88.0199 151.644C87.6507 151.063 87.0824 150.773 86.3148 150.773ZM100.946 149.271V157.4H102.353V162.428H100.446V159H93.7307V162.428H91.8234V157.4H92.6145C93.1066 156.686 93.5168 155.889 93.8449 155.01C94.1789 154.131 94.4367 153.205 94.6184 152.232C94.8059 151.254 94.923 150.267 94.9699 149.271H100.946ZM98.8986 150.853H96.7453C96.675 151.644 96.5549 152.432 96.385 153.217C96.215 153.996 95.9953 154.743 95.7258 155.458C95.4621 156.167 95.1457 156.814 94.7766 157.4H98.8986V150.853ZM106.06 149.271V154.236C106.06 154.395 106.054 154.597 106.042 154.843C106.036 155.083 106.024 155.335 106.007 155.599C105.989 155.856 105.972 156.094 105.954 156.311C105.937 156.527 105.922 156.688 105.91 156.794L110.806 149.271H113.319V159H111.342V154.087C111.342 153.829 111.348 153.53 111.359 153.19C111.377 152.851 111.395 152.522 111.412 152.206C111.436 151.89 111.45 151.649 111.456 151.485L106.578 159H104.073V149.271H106.06ZM118.274 149.271V153.182H122.827V149.271H124.901V159H122.827V154.799H118.274V159H116.2V149.271H118.274ZM134.075 149.271V150.896H129.839V159H127.764V149.271H134.075ZM144.371 159.176C143.452 159.176 142.655 158.997 141.981 158.64C141.307 158.282 140.788 157.734 140.425 156.996C140.062 156.258 139.88 155.32 139.88 154.184C139.88 153 140.079 152.033 140.478 151.283C140.876 150.533 141.427 149.979 142.13 149.622C142.839 149.265 143.651 149.086 144.565 149.086C145.145 149.086 145.669 149.145 146.138 149.262C146.613 149.373 147.014 149.511 147.342 149.675L146.727 151.327C146.37 151.181 146.003 151.058 145.628 150.958C145.253 150.858 144.893 150.809 144.547 150.809C143.979 150.809 143.504 150.935 143.123 151.187C142.748 151.438 142.467 151.813 142.28 152.312C142.098 152.81 142.007 153.428 142.007 154.166C142.007 154.881 142.101 155.484 142.288 155.977C142.476 156.463 142.754 156.832 143.123 157.084C143.493 157.33 143.947 157.453 144.486 157.453C145.019 157.453 145.496 157.389 145.918 157.26C146.34 157.131 146.739 156.964 147.114 156.759V158.552C146.745 158.763 146.349 158.918 145.927 159.018C145.505 159.123 144.987 159.176 144.371 159.176ZM157.316 159H155.233V150.888H152.534C152.417 152.364 152.271 153.627 152.095 154.676C151.919 155.725 151.699 156.58 151.436 157.242C151.172 157.898 150.847 158.379 150.46 158.684C150.073 158.988 149.608 159.141 149.063 159.141C148.823 159.141 148.606 159.123 148.412 159.088C148.219 159.059 148.046 159.012 147.894 158.947V157.321C147.993 157.356 148.102 157.386 148.219 157.409C148.336 157.433 148.456 157.444 148.579 157.444C148.796 157.444 148.995 157.356 149.177 157.181C149.364 156.999 149.537 156.715 149.696 156.328C149.854 155.941 149.997 155.432 150.126 154.799C150.255 154.16 150.372 153.387 150.478 152.479C150.583 151.564 150.677 150.495 150.759 149.271H157.316V159ZM158.72 149.271H160.97L162.965 154.825C163.053 155.077 163.132 155.326 163.202 155.572C163.278 155.812 163.343 156.05 163.396 156.284C163.454 156.519 163.501 156.753 163.536 156.987H163.589C163.648 156.683 163.73 156.343 163.835 155.968C163.946 155.587 164.069 155.206 164.204 154.825L166.12 149.271H168.344L164.169 160.336C163.929 160.969 163.633 161.508 163.281 161.953C162.936 162.404 162.525 162.744 162.051 162.973C161.576 163.207 161.034 163.324 160.425 163.324C160.132 163.324 159.877 163.307 159.66 163.271C159.443 163.242 159.259 163.21 159.107 163.175V161.522C159.23 161.552 159.385 161.578 159.572 161.602C159.76 161.625 159.953 161.637 160.152 161.637C160.522 161.637 160.841 161.563 161.11 161.417C161.38 161.271 161.608 161.062 161.796 160.793C161.983 160.529 162.139 160.228 162.262 159.888L162.605 158.974L158.72 149.271ZM183.503 149.271V159H169.73V149.271H171.796V157.374H175.575V149.271H177.649V157.374H181.437V149.271H183.503ZM190.189 149.086C191.42 149.086 192.348 149.358 192.975 149.903C193.608 150.448 193.925 151.298 193.925 152.452V159H192.457L192.061 157.62H191.991C191.716 157.972 191.431 158.262 191.138 158.49C190.845 158.719 190.506 158.889 190.119 159C189.738 159.117 189.272 159.176 188.721 159.176C188.141 159.176 187.623 159.07 187.166 158.859C186.709 158.643 186.348 158.314 186.085 157.875C185.821 157.436 185.689 156.879 185.689 156.205C185.689 155.203 186.061 154.45 186.805 153.946C187.555 153.442 188.686 153.164 190.198 153.111L191.886 153.05V152.54C191.886 151.866 191.727 151.386 191.411 151.099C191.1 150.812 190.661 150.668 190.093 150.668C189.606 150.668 189.135 150.738 188.678 150.879C188.22 151.02 187.775 151.192 187.342 151.397L186.674 149.938C187.148 149.687 187.687 149.481 188.291 149.323C188.9 149.165 189.533 149.086 190.189 149.086ZM191.877 154.351L190.62 154.395C189.589 154.43 188.865 154.605 188.449 154.922C188.033 155.238 187.825 155.672 187.825 156.223C187.825 156.703 187.969 157.055 188.256 157.277C188.543 157.494 188.921 157.603 189.389 157.603C190.104 157.603 190.696 157.4 191.165 156.996C191.639 156.586 191.877 155.985 191.877 155.194V154.351ZM204.074 150.896H200.875V159H198.818V150.896H195.636V149.271H204.074V150.896ZM209.741 149.086C210.608 149.086 211.352 149.265 211.973 149.622C212.594 149.979 213.072 150.486 213.406 151.143C213.74 151.799 213.907 152.584 213.907 153.498V154.605H207.412C207.435 155.549 207.687 156.275 208.167 156.785C208.654 157.295 209.333 157.55 210.206 157.55C210.828 157.55 211.384 157.491 211.876 157.374C212.374 157.251 212.887 157.072 213.414 156.838V158.517C212.928 158.745 212.433 158.912 211.929 159.018C211.425 159.123 210.822 159.176 210.119 159.176C209.164 159.176 208.323 158.991 207.596 158.622C206.875 158.247 206.31 157.69 205.9 156.952C205.496 156.214 205.293 155.297 205.293 154.201C205.293 153.111 205.478 152.186 205.847 151.424C206.216 150.662 206.735 150.082 207.403 149.684C208.071 149.285 208.85 149.086 209.741 149.086ZM209.741 150.642C209.09 150.642 208.563 150.853 208.159 151.274C207.76 151.696 207.526 152.314 207.456 153.129H211.885C211.879 152.643 211.797 152.212 211.639 151.837C211.487 151.462 211.252 151.169 210.936 150.958C210.625 150.747 210.227 150.642 209.741 150.642ZM224.153 159H222.07V150.888H219.371C219.254 152.364 219.108 153.627 218.932 154.676C218.756 155.725 218.536 156.58 218.273 157.242C218.009 157.898 217.684 158.379 217.297 158.684C216.91 158.988 216.445 159.141 215.9 159.141C215.659 159.141 215.443 159.123 215.249 159.088C215.056 159.059 214.883 159.012 214.731 158.947V157.321C214.83 157.356 214.939 157.386 215.056 157.409C215.173 157.433 215.293 157.444 215.416 157.444C215.633 157.444 215.832 157.356 216.014 157.181C216.201 156.999 216.374 156.715 216.533 156.328C216.691 155.941 216.834 155.432 216.963 154.799C217.092 154.16 217.209 153.387 217.315 152.479C217.42 151.564 217.514 150.495 217.596 149.271H224.153V159ZM230.901 149.086C231.768 149.086 232.512 149.265 233.133 149.622C233.754 149.979 234.232 150.486 234.566 151.143C234.9 151.799 235.067 152.584 235.067 153.498V154.605H228.571C228.595 155.549 228.847 156.275 229.327 156.785C229.814 157.295 230.493 157.55 231.366 157.55C231.987 157.55 232.544 157.491 233.036 157.374C233.534 157.251 234.047 157.072 234.574 156.838V158.517C234.088 158.745 233.593 158.912 233.089 159.018C232.585 159.123 231.982 159.176 231.278 159.176C230.323 159.176 229.483 158.991 228.756 158.622C228.035 158.247 227.47 157.69 227.06 156.952C226.655 156.214 226.453 155.297 226.453 154.201C226.453 153.111 226.638 152.186 227.007 151.424C227.376 150.662 227.895 150.082 228.563 149.684C229.231 149.285 230.01 149.086 230.901 149.086ZM230.901 150.642C230.25 150.642 229.723 150.853 229.318 151.274C228.92 151.696 228.686 152.314 228.615 153.129H233.045C233.039 152.643 232.957 152.212 232.799 151.837C232.647 151.462 232.412 151.169 232.096 150.958C231.785 150.747 231.387 150.642 230.901 150.642ZM239.292 149.271V154.236C239.292 154.395 239.286 154.597 239.274 154.843C239.269 155.083 239.257 155.335 239.239 155.599C239.222 155.856 239.204 156.094 239.186 156.311C239.169 156.527 239.154 156.688 239.143 156.794L244.038 149.271H246.552V159H244.574V154.087C244.574 153.829 244.58 153.53 244.592 153.19C244.609 152.851 244.627 152.522 244.644 152.206C244.668 151.89 244.683 151.649 244.688 151.485L239.811 159H237.306V149.271H239.292ZM245.822 145.175C245.764 145.778 245.6 146.3 245.33 146.739C245.066 147.173 244.665 147.507 244.126 147.741C243.587 147.976 242.878 148.093 241.999 148.093C241.091 148.093 240.373 147.981 239.846 147.759C239.318 147.53 238.937 147.199 238.703 146.766C238.469 146.326 238.328 145.796 238.281 145.175H240.162C240.221 145.825 240.391 146.265 240.672 146.493C240.953 146.716 241.407 146.827 242.034 146.827C242.573 146.827 243.004 146.707 243.326 146.467C243.654 146.227 243.851 145.796 243.915 145.175H245.822ZM34.6875 196V183.15H42.5273V184.935H36.7969V188.345H38.335C39.5537 188.345 40.5322 188.506 41.2705 188.828C42.0088 189.145 42.542 189.587 42.8701 190.155C43.1982 190.724 43.3623 191.377 43.3623 192.115C43.3623 193.34 42.9727 194.295 42.1934 194.98C41.4199 195.66 40.1631 196 38.4229 196H34.6875ZM36.7969 194.242H38.291C39.2812 194.242 40.0166 194.075 40.4971 193.741C40.9775 193.401 41.2178 192.859 41.2178 192.115C41.2178 191.594 41.1006 191.189 40.8662 190.902C40.6318 190.609 40.2803 190.404 39.8115 190.287C39.3486 190.17 38.7627 190.111 38.0537 190.111H36.7969V194.242ZM50.6287 186.086C51.783 186.086 52.7088 186.508 53.4061 187.352C54.1092 188.195 54.4608 189.449 54.4608 191.113C54.4608 192.215 54.2967 193.144 53.9686 193.899C53.6463 194.649 53.1922 195.218 52.6063 195.604C52.0262 195.985 51.3495 196.176 50.576 196.176C50.0838 196.176 49.6561 196.111 49.2928 195.982C48.9295 195.854 48.619 195.687 48.3612 195.481C48.1034 195.271 47.8866 195.042 47.7108 194.796H47.5877C47.617 195.03 47.6434 195.291 47.6668 195.578C47.6961 195.859 47.7108 196.117 47.7108 196.352V200.315H45.6366V186.271H47.3241L47.6141 187.615H47.7108C47.8924 187.34 48.1121 187.085 48.37 186.851C48.6336 186.616 48.95 186.432 49.3192 186.297C49.6942 186.156 50.1307 186.086 50.6287 186.086ZM50.075 187.773C49.5067 187.773 49.0496 187.888 48.7039 188.116C48.3641 188.339 48.1151 188.676 47.9569 189.127C47.8045 189.578 47.7225 190.144 47.7108 190.823V191.113C47.7108 191.834 47.784 192.446 47.9305 192.95C48.0829 193.448 48.3319 193.829 48.6776 194.093C49.0291 194.351 49.5037 194.479 50.1014 194.479C50.6053 194.479 51.0213 194.342 51.3495 194.066C51.6834 193.791 51.9325 193.398 52.0965 192.889C52.2606 192.379 52.3426 191.778 52.3426 191.087C52.3426 190.038 52.1551 189.224 51.7801 188.644C51.411 188.063 50.8426 187.773 50.075 187.773ZM58.7477 186.271V191.236C58.7477 191.395 58.7419 191.597 58.7302 191.843C58.7243 192.083 58.7126 192.335 58.695 192.599C58.6774 192.856 58.6598 193.094 58.6423 193.311C58.6247 193.527 58.61 193.688 58.5983 193.794L63.4938 186.271H66.0075V196H64.03V191.087C64.03 190.829 64.0358 190.53 64.0475 190.19C64.0651 189.851 64.0827 189.522 64.1003 189.206C64.1237 188.89 64.1384 188.649 64.1442 188.485L59.2663 196H56.7614V186.271H58.7477ZM75.2779 182.324V186.174C76.3208 186.262 77.2144 186.52 77.9585 186.947C78.7027 187.369 79.2739 187.935 79.6724 188.644C80.0708 189.353 80.27 190.182 80.27 191.131C80.27 192.068 80.0767 192.895 79.69 193.609C79.3091 194.324 78.7466 194.896 78.0025 195.323C77.2642 195.751 76.356 196.012 75.2779 196.105V200.324H73.3179V196.105C72.2749 196.018 71.3814 195.76 70.6372 195.332C69.8931 194.904 69.3189 194.333 68.9146 193.618C68.5103 192.903 68.3081 192.074 68.3081 191.131C68.3081 190.176 68.4986 189.341 68.8794 188.626C69.2603 187.911 69.8228 187.343 70.5669 186.921C71.3111 186.499 72.2368 186.25 73.3443 186.174V182.324H75.2779ZM73.3443 187.782C72.7114 187.853 72.1782 188.034 71.7446 188.327C71.3169 188.614 70.9946 188.995 70.7779 189.47C70.5611 189.944 70.4527 190.498 70.4527 191.131C70.4527 191.77 70.5581 192.329 70.7691 192.81C70.9859 193.284 71.3081 193.665 71.7359 193.952C72.1695 194.239 72.7056 194.418 73.3443 194.488V187.782ZM75.2779 187.809V194.488C75.9107 194.418 76.438 194.239 76.8599 193.952C77.2876 193.659 77.607 193.275 77.8179 192.801C78.0347 192.32 78.1431 191.764 78.1431 191.131C78.1431 190.182 77.897 189.417 77.4048 188.837C76.9185 188.257 76.2095 187.914 75.2779 187.809ZM82.5619 196V186.271H84.6361V190.155H86.5961C87.5101 190.155 88.263 190.261 88.8548 190.472C89.4466 190.677 89.8861 190.987 90.1732 191.403C90.4603 191.819 90.6039 192.341 90.6039 192.968C90.6039 193.583 90.4662 194.119 90.1908 194.576C89.9154 195.027 89.4847 195.379 88.8988 195.631C88.3129 195.877 87.5453 196 86.5961 196H82.5619ZM84.6361 194.479H86.4554C87.0765 194.479 87.5775 194.368 87.9584 194.146C88.3451 193.917 88.5384 193.542 88.5384 193.021C88.5384 192.534 88.3597 192.191 88.0023 191.992C87.6507 191.787 87.1351 191.685 86.4554 191.685H84.6361V194.479ZM92.1068 196V186.271H94.181V196H92.1068ZM103.704 186.271V190.182H108.257V186.271H110.331V196H108.257V191.799H103.704V196H101.63V186.271H103.704ZM117.009 186.086C118.239 186.086 119.168 186.358 119.795 186.903C120.428 187.448 120.744 188.298 120.744 189.452V196H119.276L118.881 194.62H118.81C118.535 194.972 118.251 195.262 117.958 195.49C117.665 195.719 117.325 195.889 116.938 196C116.558 196.117 116.092 196.176 115.541 196.176C114.961 196.176 114.442 196.07 113.985 195.859C113.528 195.643 113.168 195.314 112.904 194.875C112.641 194.436 112.509 193.879 112.509 193.205C112.509 192.203 112.881 191.45 113.625 190.946C114.375 190.442 115.506 190.164 117.017 190.111L118.705 190.05V189.54C118.705 188.866 118.547 188.386 118.23 188.099C117.92 187.812 117.48 187.668 116.912 187.668C116.426 187.668 115.954 187.738 115.497 187.879C115.04 188.02 114.595 188.192 114.161 188.397L113.493 186.938C113.968 186.687 114.507 186.481 115.11 186.323C115.72 186.165 116.352 186.086 117.009 186.086ZM118.696 191.351L117.439 191.395C116.408 191.43 115.684 191.605 115.268 191.922C114.852 192.238 114.644 192.672 114.644 193.223C114.644 193.703 114.788 194.055 115.075 194.277C115.362 194.494 115.74 194.603 116.209 194.603C116.924 194.603 117.516 194.4 117.984 193.996C118.459 193.586 118.696 192.985 118.696 192.194V191.351ZM136.63 186.271V196H134.547V187.905H130.206V196H128.131V186.271H136.63ZM144.495 186.086C145.649 186.086 146.575 186.508 147.272 187.352C147.975 188.195 148.327 189.449 148.327 191.113C148.327 192.215 148.162 193.144 147.834 193.899C147.512 194.649 147.058 195.218 146.472 195.604C145.892 195.985 145.215 196.176 144.442 196.176C143.95 196.176 143.522 196.111 143.159 195.982C142.795 195.854 142.485 195.687 142.227 195.481C141.969 195.271 141.752 195.042 141.577 194.796H141.454C141.483 195.03 141.509 195.291 141.533 195.578C141.562 195.859 141.577 196.117 141.577 196.352V200.315H139.502V186.271H141.19L141.48 187.615H141.577C141.758 187.34 141.978 187.085 142.236 186.851C142.499 186.616 142.816 186.432 143.185 186.297C143.56 186.156 143.996 186.086 144.495 186.086ZM143.941 187.773C143.372 187.773 142.915 187.888 142.57 188.116C142.23 188.339 141.981 188.676 141.823 189.127C141.67 189.578 141.588 190.144 141.577 190.823V191.113C141.577 191.834 141.65 192.446 141.796 192.95C141.949 193.448 142.198 193.829 142.543 194.093C142.895 194.351 143.37 194.479 143.967 194.479C144.471 194.479 144.887 194.342 145.215 194.066C145.549 193.791 145.798 193.398 145.962 192.889C146.126 192.379 146.208 191.778 146.208 191.087C146.208 190.038 146.021 189.224 145.646 188.644C145.277 188.063 144.708 187.773 143.941 187.773ZM159.24 191.113C159.24 191.922 159.135 192.64 158.924 193.267C158.713 193.894 158.406 194.424 158.001 194.857C157.597 195.285 157.111 195.613 156.542 195.842C155.974 196.064 155.332 196.176 154.617 196.176C153.949 196.176 153.337 196.064 152.781 195.842C152.224 195.613 151.74 195.285 151.33 194.857C150.926 194.424 150.613 193.894 150.39 193.267C150.167 192.64 150.056 191.922 150.056 191.113C150.056 190.041 150.24 189.133 150.61 188.389C150.985 187.639 151.518 187.067 152.209 186.675C152.901 186.282 153.724 186.086 154.679 186.086C155.575 186.086 156.366 186.282 157.052 186.675C157.738 187.067 158.274 187.639 158.66 188.389C159.047 189.139 159.24 190.047 159.24 191.113ZM152.183 191.113C152.183 191.822 152.268 192.429 152.438 192.933C152.614 193.437 152.883 193.823 153.246 194.093C153.61 194.356 154.078 194.488 154.653 194.488C155.227 194.488 155.696 194.356 156.059 194.093C156.422 193.823 156.689 193.437 156.859 192.933C157.029 192.429 157.114 191.822 157.114 191.113C157.114 190.404 157.029 189.804 156.859 189.312C156.689 188.813 156.422 188.436 156.059 188.178C155.696 187.914 155.224 187.782 154.644 187.782C153.788 187.782 153.164 188.069 152.772 188.644C152.379 189.218 152.183 190.041 152.183 191.113ZM165.399 186.086C166.267 186.086 167.011 186.265 167.632 186.622C168.253 186.979 168.731 187.486 169.065 188.143C169.399 188.799 169.566 189.584 169.566 190.498V191.605H163.07C163.094 192.549 163.346 193.275 163.826 193.785C164.313 194.295 164.992 194.55 165.865 194.55C166.486 194.55 167.043 194.491 167.535 194.374C168.033 194.251 168.546 194.072 169.073 193.838V195.517C168.587 195.745 168.092 195.912 167.588 196.018C167.084 196.123 166.481 196.176 165.777 196.176C164.822 196.176 163.982 195.991 163.255 195.622C162.534 195.247 161.969 194.69 161.559 193.952C161.154 193.214 160.952 192.297 160.952 191.201C160.952 190.111 161.137 189.186 161.506 188.424C161.875 187.662 162.394 187.082 163.062 186.684C163.73 186.285 164.509 186.086 165.399 186.086ZM165.399 187.642C164.749 187.642 164.222 187.853 163.817 188.274C163.419 188.696 163.185 189.314 163.114 190.129H167.544C167.538 189.643 167.456 189.212 167.298 188.837C167.146 188.462 166.911 188.169 166.595 187.958C166.284 187.747 165.886 187.642 165.399 187.642ZM177.834 186.271H180.11L176.085 190.946L180.453 196H178.071L173.879 191.061V196H171.805V186.271H173.879V190.99L177.834 186.271ZM189.293 187.896H186.094V196H184.037V187.896H180.855V186.271H189.293V187.896ZM193.158 186.271V190.182H197.711V186.271H199.785V196H197.711V191.799H193.158V196H191.084V186.271H193.158ZM201.18 186.271H203.43L205.425 191.825C205.513 192.077 205.592 192.326 205.663 192.572C205.739 192.812 205.803 193.05 205.856 193.284C205.914 193.519 205.961 193.753 205.997 193.987H206.049C206.108 193.683 206.19 193.343 206.295 192.968C206.407 192.587 206.53 192.206 206.664 191.825L208.581 186.271H210.804L206.629 197.336C206.389 197.969 206.093 198.508 205.742 198.953C205.396 199.404 204.986 199.744 204.511 199.973C204.037 200.207 203.495 200.324 202.885 200.324C202.592 200.324 202.337 200.307 202.121 200.271C201.904 200.242 201.719 200.21 201.567 200.175V198.522C201.69 198.552 201.845 198.578 202.033 198.602C202.22 198.625 202.414 198.637 202.613 198.637C202.982 198.637 203.301 198.563 203.571 198.417C203.84 198.271 204.069 198.062 204.256 197.793C204.444 197.529 204.599 197.228 204.722 196.888L205.065 195.974L201.18 186.271ZM225.163 191.113C225.163 192.186 224.985 193.1 224.627 193.855C224.276 194.611 223.772 195.188 223.116 195.587C222.459 195.979 221.674 196.176 220.76 196.176C219.951 196.176 219.234 196.012 218.607 195.684C217.986 195.355 217.488 194.866 217.113 194.216C216.738 193.565 216.506 192.76 216.418 191.799H214.256V196H212.191V186.271H214.256V190.182H216.445C216.55 189.309 216.79 188.567 217.165 187.958C217.54 187.349 218.035 186.886 218.651 186.569C219.272 186.247 219.99 186.086 220.804 186.086C221.671 186.086 222.43 186.285 223.08 186.684C223.737 187.076 224.246 187.647 224.61 188.397C224.979 189.142 225.163 190.047 225.163 191.113ZM218.519 191.113C218.519 191.84 218.595 192.455 218.747 192.959C218.906 193.463 219.152 193.844 219.486 194.102C219.82 194.359 220.253 194.488 220.786 194.488C221.32 194.488 221.75 194.359 222.078 194.102C222.412 193.844 222.656 193.466 222.808 192.968C222.966 192.464 223.045 191.846 223.045 191.113C223.045 190.387 222.966 189.777 222.808 189.285C222.656 188.793 222.412 188.421 222.078 188.169C221.744 187.911 221.311 187.782 220.778 187.782C220.25 187.782 219.82 187.911 219.486 188.169C219.152 188.421 218.906 188.793 218.747 189.285C218.595 189.777 218.519 190.387 218.519 191.113ZM237.042 186.086C238.196 186.086 239.122 186.508 239.819 187.352C240.522 188.195 240.874 189.449 240.874 191.113C240.874 192.215 240.71 193.144 240.382 193.899C240.06 194.649 239.605 195.218 239.019 195.604C238.439 195.985 237.763 196.176 236.989 196.176C236.497 196.176 236.069 196.111 235.706 195.982C235.343 195.854 235.032 195.687 234.774 195.481C234.517 195.271 234.3 195.042 234.124 194.796H234.001C234.03 195.03 234.057 195.291 234.08 195.578C234.109 195.859 234.124 196.117 234.124 196.352V200.315H232.05V186.271H233.737L234.027 187.615H234.124C234.306 187.34 234.525 187.085 234.783 186.851C235.047 186.616 235.363 186.432 235.732 186.297C236.107 186.156 236.544 186.086 237.042 186.086ZM236.488 187.773C235.92 187.773 235.463 187.888 235.117 188.116C234.777 188.339 234.528 188.676 234.37 189.127C234.218 189.578 234.136 190.144 234.124 190.823V191.113C234.124 191.834 234.197 192.446 234.344 192.95C234.496 193.448 234.745 193.829 235.091 194.093C235.442 194.351 235.917 194.479 236.515 194.479C237.019 194.479 237.435 194.342 237.763 194.066C238.097 193.791 238.346 193.398 238.51 192.889C238.674 192.379 238.756 191.778 238.756 191.087C238.756 190.038 238.568 189.224 238.193 188.644C237.824 188.063 237.256 187.773 236.488 187.773ZM246.989 186.086C248.22 186.086 249.148 186.358 249.775 186.903C250.408 187.448 250.724 188.298 250.724 189.452V196H249.257L248.861 194.62H248.791C248.515 194.972 248.231 195.262 247.938 195.49C247.645 195.719 247.305 195.889 246.919 196C246.538 196.117 246.072 196.176 245.521 196.176C244.941 196.176 244.423 196.07 243.966 195.859C243.509 195.643 243.148 195.314 242.885 194.875C242.621 194.436 242.489 193.879 242.489 193.205C242.489 192.203 242.861 191.45 243.605 190.946C244.355 190.442 245.486 190.164 246.998 190.111L248.685 190.05V189.54C248.685 188.866 248.527 188.386 248.211 188.099C247.9 187.812 247.461 187.668 246.892 187.668C246.406 187.668 245.934 187.738 245.477 187.879C245.02 188.02 244.575 188.192 244.141 188.397L243.473 186.938C243.948 186.687 244.487 186.481 245.091 186.323C245.7 186.165 246.333 186.086 246.989 186.086ZM248.677 191.351L247.42 191.395C246.388 191.43 245.665 191.605 245.249 191.922C244.833 192.238 244.625 192.672 244.625 193.223C244.625 193.703 244.768 194.055 245.055 194.277C245.343 194.494 245.721 194.603 246.189 194.603C246.904 194.603 247.496 194.4 247.965 193.996C248.439 193.586 248.677 192.985 248.677 192.194V191.351ZM252.972 190.164C252.972 188.752 253.128 187.551 253.438 186.561C253.749 185.57 254.238 184.776 254.906 184.179C255.574 183.581 256.441 183.174 257.507 182.957C258.199 182.799 258.902 182.664 259.617 182.553C260.332 182.441 261.047 182.333 261.761 182.228L262.043 184.047C261.709 184.088 261.351 184.138 260.97 184.196C260.589 184.249 260.206 184.305 259.819 184.363C259.438 184.422 259.072 184.483 258.72 184.548C258.375 184.606 258.064 184.665 257.789 184.724C257.238 184.841 256.772 185.034 256.391 185.304C256.016 185.567 255.723 185.954 255.512 186.464C255.301 186.974 255.175 187.653 255.134 188.503H255.249C255.407 188.263 255.627 188.022 255.908 187.782C256.189 187.542 256.529 187.343 256.927 187.185C257.332 187.021 257.792 186.938 258.307 186.938C259.116 186.938 259.801 187.108 260.364 187.448C260.932 187.788 261.363 188.28 261.656 188.925C261.955 189.569 262.104 190.346 262.104 191.254C262.104 192.338 261.911 193.246 261.524 193.979C261.143 194.705 260.61 195.253 259.924 195.622C259.239 195.991 258.439 196.176 257.525 196.176C256.822 196.176 256.189 196.044 255.627 195.78C255.07 195.517 254.592 195.13 254.194 194.62C253.801 194.104 253.5 193.475 253.289 192.73C253.078 191.98 252.972 191.125 252.972 190.164ZM257.666 194.479C258.134 194.479 258.539 194.38 258.879 194.181C259.224 193.981 259.491 193.659 259.678 193.214C259.872 192.769 259.968 192.18 259.968 191.447C259.968 190.545 259.804 189.836 259.476 189.32C259.154 188.799 258.621 188.538 257.877 188.538C257.42 188.538 257.001 188.641 256.62 188.846C256.239 189.051 255.917 189.291 255.653 189.566C255.389 189.836 255.202 190.073 255.09 190.278C255.09 190.812 255.129 191.327 255.205 191.825C255.287 192.323 255.422 192.774 255.609 193.179C255.802 193.577 256.066 193.894 256.4 194.128C256.734 194.362 257.156 194.479 257.666 194.479ZM273 191.113C273 191.922 272.895 192.64 272.684 193.267C272.473 193.894 272.166 194.424 271.761 194.857C271.357 195.285 270.871 195.613 270.302 195.842C269.734 196.064 269.092 196.176 268.377 196.176C267.709 196.176 267.097 196.064 266.541 195.842C265.984 195.613 265.5 195.285 265.09 194.857C264.686 194.424 264.373 193.894 264.15 193.267C263.927 192.64 263.816 191.922 263.816 191.113C263.816 190.041 264 189.133 264.37 188.389C264.745 187.639 265.278 187.067 265.969 186.675C266.661 186.282 267.484 186.086 268.439 186.086C269.335 186.086 270.126 186.282 270.812 186.675C271.498 187.067 272.034 187.639 272.42 188.389C272.807 189.139 273 190.047 273 191.113ZM265.943 191.113C265.943 191.822 266.028 192.429 266.198 192.933C266.374 193.437 266.643 193.823 267.006 194.093C267.37 194.356 267.838 194.488 268.413 194.488C268.987 194.488 269.456 194.356 269.819 194.093C270.182 193.823 270.449 193.437 270.619 192.933C270.789 192.429 270.874 191.822 270.874 191.113C270.874 190.404 270.789 189.804 270.619 189.312C270.449 188.813 270.182 188.436 269.819 188.178C269.456 187.914 268.984 187.782 268.404 187.782C267.548 187.782 266.924 188.069 266.532 188.644C266.139 189.218 265.943 190.041 265.943 191.113ZM282.631 187.896H279.432V196H277.375V187.896H274.194V186.271H282.631V187.896ZM282.954 186.271H285.204L287.199 191.825C287.287 192.077 287.366 192.326 287.437 192.572C287.513 192.812 287.577 193.05 287.63 193.284C287.689 193.519 287.736 193.753 287.771 193.987H287.823C287.882 193.683 287.964 193.343 288.069 192.968C288.181 192.587 288.304 192.206 288.439 191.825L290.355 186.271H292.578L288.403 197.336C288.163 197.969 287.867 198.508 287.516 198.953C287.17 199.404 286.76 199.744 286.285 199.973C285.811 200.207 285.269 200.324 284.659 200.324C284.366 200.324 284.111 200.307 283.895 200.271C283.678 200.242 283.493 200.21 283.341 200.175V198.522C283.464 198.552 283.619 198.578 283.807 198.602C283.994 198.625 284.188 198.637 284.387 198.637C284.756 198.637 285.075 198.563 285.345 198.417C285.614 198.271 285.843 198.062 286.03 197.793C286.218 197.529 286.373 197.228 286.496 196.888L286.839 195.974L282.954 186.271ZM307.164 191.113C307.164 191.922 307.058 192.64 306.848 193.267C306.637 193.894 306.329 194.424 305.925 194.857C305.52 195.285 305.034 195.613 304.466 195.842C303.897 196.064 303.256 196.176 302.541 196.176C301.873 196.176 301.261 196.064 300.704 195.842C300.147 195.613 299.664 195.285 299.254 194.857C298.849 194.424 298.536 193.894 298.313 193.267C298.091 192.64 297.979 191.922 297.979 191.113C297.979 190.041 298.164 189.133 298.533 188.389C298.908 187.639 299.441 187.067 300.133 186.675C300.824 186.282 301.647 186.086 302.602 186.086C303.499 186.086 304.29 186.282 304.975 186.675C305.661 187.067 306.197 187.639 306.584 188.389C306.971 189.139 307.164 190.047 307.164 191.113ZM300.106 191.113C300.106 191.822 300.191 192.429 300.361 192.933C300.537 193.437 300.806 193.823 301.17 194.093C301.533 194.356 302.002 194.488 302.576 194.488C303.15 194.488 303.619 194.356 303.982 194.093C304.346 193.823 304.612 193.437 304.782 192.933C304.952 192.429 305.037 191.822 305.037 191.113C305.037 190.404 304.952 189.804 304.782 189.312C304.612 188.813 304.346 188.436 303.982 188.178C303.619 187.914 303.147 187.782 302.567 187.782C301.712 187.782 301.088 188.069 300.695 188.644C300.303 189.218 300.106 190.041 300.106 191.113ZM316.795 187.896H313.595V196H311.539V187.896H308.357V186.271H316.795V187.896ZM39.4688 208.086C40.623 208.086 41.5488 208.508 42.2461 209.352C42.9492 210.195 43.3008 211.449 43.3008 213.113C43.3008 214.215 43.1367 215.144 42.8086 215.899C42.4863 216.649 42.0322 217.218 41.4463 217.604C40.8662 217.985 40.1895 218.176 39.416 218.176C38.9238 218.176 38.4961 218.111 38.1328 217.982C37.7695 217.854 37.459 217.687 37.2012 217.481C36.9434 217.271 36.7266 217.042 36.5508 216.796H36.4277C36.457 217.03 36.4834 217.291 36.5068 217.578C36.5361 217.859 36.5508 218.117 36.5508 218.352V222.315H34.4766V208.271H36.1641L36.4541 209.615H36.5508C36.7324 209.34 36.9521 209.085 37.21 208.851C37.4736 208.616 37.79 208.432 38.1592 208.297C38.5342 208.156 38.9707 208.086 39.4688 208.086ZM38.915 209.773C38.3467 209.773 37.8896 209.888 37.5439 210.116C37.2041 210.339 36.9551 210.676 36.7969 211.127C36.6445 211.578 36.5625 212.144 36.5508 212.823V213.113C36.5508 213.834 36.624 214.446 36.7705 214.95C36.9229 215.448 37.1719 215.829 37.5176 216.093C37.8691 216.351 38.3438 216.479 38.9414 216.479C39.4453 216.479 39.8613 216.342 40.1895 216.066C40.5234 215.791 40.7725 215.398 40.9365 214.889C41.1006 214.379 41.1826 213.778 41.1826 213.087C41.1826 212.038 40.9951 211.224 40.6201 210.644C40.251 210.063 39.6826 209.773 38.915 209.773ZM44.1336 208.271H46.3836L48.3787 213.825C48.4666 214.077 48.5457 214.326 48.6161 214.572C48.6922 214.812 48.7567 215.05 48.8094 215.284C48.868 215.519 48.9149 215.753 48.95 215.987H49.0028C49.0614 215.683 49.1434 215.343 49.2489 214.968C49.3602 214.587 49.4832 214.206 49.618 213.825L51.534 208.271H53.7577L49.5829 219.336C49.3426 219.969 49.0467 220.508 48.6952 220.953C48.3495 221.404 47.9393 221.744 47.4647 221.973C46.9901 222.207 46.4481 222.324 45.8387 222.324C45.5457 222.324 45.2909 222.307 45.0741 222.271C44.8573 222.242 44.6727 222.21 44.5204 222.175V220.522C44.6434 220.552 44.7987 220.578 44.9862 220.602C45.1737 220.625 45.367 220.637 45.5662 220.637C45.9354 220.637 46.2547 220.563 46.5243 220.417C46.7938 220.271 47.0223 220.062 47.2098 219.793C47.3973 219.529 47.5526 219.228 47.6756 218.888L48.0184 217.974L44.1336 208.271ZM61.1735 208.271H63.4499L59.4245 212.946L63.7927 218H61.4108L57.2184 213.061V218H55.1442V208.271H57.2184V212.99L61.1735 208.271ZM73.898 213.113C73.898 213.922 73.7925 214.64 73.5816 215.267C73.3706 215.894 73.063 216.424 72.6587 216.857C72.2544 217.285 71.7681 217.613 71.1997 217.842C70.6314 218.064 69.9898 218.176 69.2749 218.176C68.607 218.176 67.9946 218.064 67.438 217.842C66.8814 217.613 66.398 217.285 65.9878 216.857C65.5835 216.424 65.27 215.894 65.0474 215.267C64.8247 214.64 64.7134 213.922 64.7134 213.113C64.7134 212.041 64.898 211.133 65.2671 210.389C65.6421 209.639 66.1753 209.067 66.8667 208.675C67.5581 208.282 68.3814 208.086 69.3364 208.086C70.2329 208.086 71.0239 208.282 71.7095 208.675C72.395 209.067 72.9312 209.639 73.3179 210.389C73.7046 211.139 73.898 212.047 73.898 213.113ZM66.8404 213.113C66.8404 213.822 66.9253 214.429 67.0952 214.933C67.271 215.437 67.5405 215.823 67.9038 216.093C68.2671 216.356 68.7359 216.488 69.3101 216.488C69.8843 216.488 70.353 216.356 70.7163 216.093C71.0796 215.823 71.3462 215.437 71.5161 214.933C71.6861 214.429 71.771 213.822 71.771 213.113C71.771 212.404 71.6861 211.804 71.5161 211.312C71.3462 210.813 71.0796 210.436 70.7163 210.178C70.353 209.914 69.8814 209.782 69.3013 209.782C68.4458 209.782 67.8218 210.069 67.4292 210.644C67.0366 211.218 66.8404 212.041 66.8404 213.113ZM84.3636 210.767C84.3636 211.329 84.1908 211.789 83.8451 212.146C83.5052 212.498 83.0365 212.729 82.4388 212.841V212.911C83.0775 212.993 83.6107 213.219 84.0384 213.588C84.4662 213.957 84.68 214.47 84.68 215.126C84.68 215.683 84.5394 216.178 84.2582 216.611C83.9828 217.039 83.5433 217.379 82.9398 217.631C82.3421 217.877 81.5599 218 80.5931 218H76.181V208.271H80.5755C81.3021 208.271 81.9496 208.35 82.5179 208.508C83.0921 208.666 83.5433 208.927 83.8714 209.29C84.1996 209.653 84.3636 210.146 84.3636 210.767ZM82.5267 215.056C82.5267 214.575 82.3421 214.229 81.973 214.019C81.6097 213.808 81.0765 213.702 80.3734 213.702H78.2552V216.479H80.4173C81.0736 216.479 81.5892 216.371 81.9642 216.154C82.3392 215.932 82.5267 215.565 82.5267 215.056ZM82.263 210.951C82.263 210.57 82.1195 210.289 81.8324 210.107C81.5453 209.92 81.0941 209.826 80.4789 209.826H78.2552V212.182H80.1976C80.8773 212.182 81.39 212.085 81.7357 211.892C82.0873 211.692 82.263 211.379 82.263 210.951ZM95.5324 213.113C95.5324 213.922 95.427 214.64 95.216 215.267C95.0051 215.894 94.6975 216.424 94.2932 216.857C93.8889 217.285 93.4025 217.613 92.8342 217.842C92.2658 218.064 91.6242 218.176 90.9094 218.176C90.2414 218.176 89.6291 218.064 89.0725 217.842C88.5158 217.613 88.0324 217.285 87.6223 216.857C87.218 216.424 86.9045 215.894 86.6818 215.267C86.4592 214.64 86.3479 213.922 86.3479 213.113C86.3479 212.041 86.5324 211.133 86.9016 210.389C87.2766 209.639 87.8098 209.067 88.5012 208.675C89.1926 208.282 90.0158 208.086 90.9709 208.086C91.8674 208.086 92.6584 208.282 93.3439 208.675C94.0295 209.067 94.5656 209.639 94.9523 210.389C95.3391 211.139 95.5324 212.047 95.5324 213.113ZM88.4748 213.113C88.4748 213.822 88.5598 214.429 88.7297 214.933C88.9055 215.437 89.175 215.823 89.5383 216.093C89.9016 216.356 90.3703 216.488 90.9445 216.488C91.5187 216.488 91.9875 216.356 92.3508 216.093C92.7141 215.823 92.9807 215.437 93.1506 214.933C93.3205 214.429 93.4055 213.822 93.4055 213.113C93.4055 212.404 93.3205 211.804 93.1506 211.312C92.9807 210.813 92.7141 210.436 92.3508 210.178C91.9875 209.914 91.5158 209.782 90.9357 209.782C90.0803 209.782 89.4562 210.069 89.0637 210.644C88.6711 211.218 88.4748 212.041 88.4748 213.113ZM105.761 208.271V216.4H107.167V221.428H105.26V218H98.545V221.428H96.6377V216.4H97.4287C97.9209 215.686 98.3311 214.889 98.6592 214.01C98.9932 213.131 99.251 212.205 99.4327 211.232C99.6202 210.254 99.7373 209.267 99.7842 208.271H105.761ZM103.713 209.853H101.56C101.489 210.644 101.369 211.432 101.199 212.217C101.029 212.996 100.81 213.743 100.54 214.458C100.276 215.167 99.96 215.814 99.5909 216.4H103.713V209.853ZM112.808 218.176C111.888 218.176 111.091 217.997 110.417 217.64C109.743 217.282 109.224 216.734 108.861 215.996C108.498 215.258 108.316 214.32 108.316 213.184C108.316 212 108.516 211.033 108.914 210.283C109.312 209.533 109.863 208.979 110.566 208.622C111.275 208.265 112.087 208.086 113.001 208.086C113.581 208.086 114.105 208.145 114.574 208.262C115.049 208.373 115.45 208.511 115.778 208.675L115.163 210.327C114.806 210.181 114.439 210.058 114.064 209.958C113.689 209.858 113.329 209.809 112.983 209.809C112.415 209.809 111.94 209.935 111.559 210.187C111.184 210.438 110.903 210.813 110.716 211.312C110.534 211.81 110.443 212.428 110.443 213.166C110.443 213.881 110.537 214.484 110.724 214.977C110.912 215.463 111.19 215.832 111.559 216.084C111.929 216.33 112.383 216.453 112.922 216.453C113.455 216.453 113.933 216.389 114.354 216.26C114.776 216.131 115.175 215.964 115.55 215.759V217.552C115.181 217.763 114.785 217.918 114.363 218.018C113.941 218.123 113.423 218.176 112.808 218.176ZM125.092 209.896H121.893V218H119.837V209.896H116.655V208.271H125.092V209.896ZM135.066 210.767C135.066 211.329 134.893 211.789 134.547 212.146C134.208 212.498 133.739 212.729 133.141 212.841V212.911C133.78 212.993 134.313 213.219 134.741 213.588C135.169 213.957 135.382 214.47 135.382 215.126C135.382 215.683 135.242 216.178 134.961 216.611C134.685 217.039 134.246 217.379 133.642 217.631C133.044 217.877 132.262 218 131.295 218H126.883V208.271H131.278C132.004 208.271 132.652 208.35 133.22 208.508C133.794 208.666 134.246 208.927 134.574 209.29C134.902 209.653 135.066 210.146 135.066 210.767ZM133.229 215.056C133.229 214.575 133.044 214.229 132.675 214.019C132.312 213.808 131.779 213.702 131.076 213.702H128.958V216.479H131.12C131.776 216.479 132.292 216.371 132.667 216.154C133.042 215.932 133.229 215.565 133.229 215.056ZM132.965 210.951C132.965 210.57 132.822 210.289 132.535 210.107C132.248 209.92 131.796 209.826 131.181 209.826H128.958V212.182H130.9C131.58 212.182 132.092 212.085 132.438 211.892C132.79 211.692 132.965 211.379 132.965 210.951ZM141.436 208.086C142.666 208.086 143.595 208.358 144.222 208.903C144.855 209.448 145.171 210.298 145.171 211.452V218H143.704L143.308 216.62H143.238C142.962 216.972 142.678 217.262 142.385 217.49C142.092 217.719 141.752 217.889 141.366 218C140.985 218.117 140.519 218.176 139.968 218.176C139.388 218.176 138.87 218.07 138.412 217.859C137.955 217.643 137.595 217.314 137.331 216.875C137.068 216.436 136.936 215.879 136.936 215.205C136.936 214.203 137.308 213.45 138.052 212.946C138.802 212.442 139.933 212.164 141.445 212.111L143.132 212.05V211.54C143.132 210.866 142.974 210.386 142.658 210.099C142.347 209.812 141.908 209.668 141.339 209.668C140.853 209.668 140.381 209.738 139.924 209.879C139.467 210.02 139.022 210.192 138.588 210.397L137.92 208.938C138.395 208.687 138.934 208.481 139.537 208.323C140.147 208.165 140.78 208.086 141.436 208.086ZM143.123 213.351L141.867 213.395C140.835 213.43 140.112 213.605 139.696 213.922C139.28 214.238 139.072 214.672 139.072 215.223C139.072 215.703 139.215 216.055 139.502 216.277C139.789 216.494 140.167 216.603 140.636 216.603C141.351 216.603 141.943 216.4 142.412 215.996C142.886 215.586 143.123 214.985 143.123 214.194V213.351ZM158.588 208.271H160.864L156.839 212.946L161.207 218H158.825L154.633 213.061V218H152.559V208.271H154.633V212.99L158.588 208.271ZM171.312 213.113C171.312 213.922 171.207 214.64 170.996 215.267C170.785 215.894 170.477 216.424 170.073 216.857C169.669 217.285 169.183 217.613 168.614 217.842C168.046 218.064 167.404 218.176 166.689 218.176C166.021 218.176 165.409 218.064 164.852 217.842C164.296 217.613 163.812 217.285 163.402 216.857C162.998 216.424 162.684 215.894 162.462 215.267C162.239 214.64 162.128 213.922 162.128 213.113C162.128 212.041 162.312 211.133 162.682 210.389C163.057 209.639 163.59 209.067 164.281 208.675C164.973 208.282 165.796 208.086 166.751 208.086C167.647 208.086 168.438 208.282 169.124 208.675C169.809 209.067 170.346 209.639 170.732 210.389C171.119 211.139 171.312 212.047 171.312 213.113ZM164.255 213.113C164.255 213.822 164.34 214.429 164.51 214.933C164.685 215.437 164.955 215.823 165.318 216.093C165.682 216.356 166.15 216.488 166.725 216.488C167.299 216.488 167.768 216.356 168.131 216.093C168.494 215.823 168.761 215.437 168.931 214.933C169.101 214.429 169.185 213.822 169.185 213.113C169.185 212.404 169.101 211.804 168.931 211.312C168.761 210.813 168.494 210.436 168.131 210.178C167.768 209.914 167.296 209.782 166.716 209.782C165.86 209.782 165.236 210.069 164.844 210.644C164.451 211.218 164.255 212.041 164.255 213.113ZM184.872 208.271V218H182.956V212.445C182.956 212.082 182.965 211.719 182.982 211.355C183 210.992 183.023 210.646 183.053 210.318H183L180.038 218H178.412L175.476 210.31H175.415C175.444 210.644 175.465 210.989 175.476 211.347C175.494 211.704 175.503 212.091 175.503 212.507V218H173.587V208.271H176.469L179.247 215.539L182.068 208.271H184.872ZM196.208 208.271V218H194.125V209.905H189.783V218H187.709V208.271H196.208ZM202.894 208.086C204.124 208.086 205.053 208.358 205.68 208.903C206.313 209.448 206.629 210.298 206.629 211.452V218H205.162L204.766 216.62H204.696C204.42 216.972 204.136 217.262 203.843 217.49C203.55 217.719 203.21 217.889 202.824 218C202.443 218.117 201.977 218.176 201.426 218.176C200.846 218.176 200.328 218.07 199.871 217.859C199.414 217.643 199.053 217.314 198.789 216.875C198.526 216.436 198.394 215.879 198.394 215.205C198.394 214.203 198.766 213.45 199.51 212.946C200.26 212.442 201.391 212.164 202.903 212.111L204.59 212.05V211.54C204.59 210.866 204.432 210.386 204.116 210.099C203.805 209.812 203.366 209.668 202.797 209.668C202.311 209.668 201.839 209.738 201.382 209.879C200.925 210.02 200.48 210.192 200.046 210.397L199.378 208.938C199.853 208.687 200.392 208.481 200.996 208.323C201.605 208.165 202.238 208.086 202.894 208.086ZM204.581 213.351L203.325 213.395C202.293 213.43 201.57 213.605 201.154 213.922C200.738 214.238 200.53 214.672 200.53 215.223C200.53 215.703 200.673 216.055 200.96 216.277C201.247 216.494 201.625 216.603 202.094 216.603C202.809 216.603 203.401 216.4 203.87 215.996C204.344 215.586 204.581 214.985 204.581 214.194V213.351ZM211.505 208.271V212.182H216.058V208.271H218.132V218H216.058V213.799H211.505V218H209.431V208.271H211.505ZM222.982 208.271V213.236C222.982 213.395 222.976 213.597 222.964 213.843C222.958 214.083 222.946 214.335 222.929 214.599C222.911 214.856 222.894 215.094 222.876 215.311C222.859 215.527 222.844 215.688 222.832 215.794L227.728 208.271H230.241V218H228.264V213.087C228.264 212.829 228.27 212.53 228.281 212.19C228.299 211.851 228.317 211.522 228.334 211.206C228.358 210.89 228.372 210.649 228.378 210.485L223.5 218H220.995V208.271H222.982ZM235.108 208.271V213.236C235.108 213.395 235.102 213.597 235.091 213.843C235.085 214.083 235.073 214.335 235.056 214.599C235.038 214.856 235.02 215.094 235.003 215.311C234.985 215.527 234.971 215.688 234.959 215.794L239.854 208.271H242.368V218H240.391V213.087C240.391 212.829 240.396 212.53 240.408 212.19C240.426 211.851 240.443 211.522 240.461 211.206C240.484 210.89 240.499 210.649 240.505 210.485L235.627 218H233.122V208.271H235.108ZM34.6875 242.15H38.5107C40.1689 242.15 41.4199 242.391 42.2637 242.871C43.1074 243.352 43.5293 244.181 43.5293 245.358C43.5293 245.851 43.4414 246.296 43.2656 246.694C43.0957 247.087 42.8467 247.412 42.5186 247.67C42.1904 247.922 41.7861 248.092 41.3057 248.18V248.268C41.8037 248.355 42.2461 248.511 42.6328 248.733C43.0254 248.956 43.333 249.275 43.5557 249.691C43.7842 250.107 43.8984 250.646 43.8984 251.309C43.8984 252.094 43.7109 252.762 43.3359 253.312C42.9668 253.863 42.4365 254.282 41.7451 254.569C41.0596 254.856 40.2451 255 39.3018 255H34.6875V242.15ZM36.7969 247.45H38.8184C39.7734 247.45 40.4355 247.295 40.8047 246.984C41.1738 246.674 41.3584 246.22 41.3584 245.622C41.3584 245.013 41.1387 244.573 40.6992 244.304C40.2656 244.034 39.5742 243.899 38.625 243.899H36.7969V247.45ZM36.7969 249.155V253.233H39.0205C40.0049 253.233 40.6963 253.043 41.0947 252.662C41.4932 252.281 41.6924 251.766 41.6924 251.115C41.6924 250.717 41.6016 250.371 41.4199 250.078C41.2441 249.785 40.9541 249.56 40.5498 249.401C40.1455 249.237 39.6006 249.155 38.915 249.155H36.7969ZM46.2518 255V245.271H48.326V249.155H50.286C51.2 249.155 51.953 249.261 52.5448 249.472C53.1366 249.677 53.576 249.987 53.8631 250.403C54.1502 250.819 54.2938 251.341 54.2938 251.968C54.2938 252.583 54.1561 253.119 53.8807 253.576C53.6053 254.027 53.1746 254.379 52.5887 254.631C52.0028 254.877 51.2352 255 50.286 255H46.2518ZM48.326 253.479H50.1454C50.7664 253.479 51.2674 253.368 51.6483 253.146C52.035 252.917 52.2284 252.542 52.2284 252.021C52.2284 251.534 52.0496 251.191 51.6922 250.992C51.3407 250.787 50.825 250.685 50.1454 250.685H48.326V253.479ZM55.7967 255V245.271H57.8709V255H55.7967ZM60.1804 249.164C60.1804 247.752 60.3356 246.551 60.6462 245.561C60.9567 244.57 61.446 243.776 62.1139 243.179C62.7819 242.581 63.6491 242.174 64.7155 241.957C65.4069 241.799 66.11 241.664 66.8249 241.553C67.5397 241.441 68.2546 241.333 68.9694 241.228L69.2507 243.047C68.9167 243.088 68.5593 243.138 68.1784 243.196C67.7975 243.249 67.4137 243.305 67.027 243.363C66.6462 243.422 66.28 243.483 65.9284 243.548C65.5827 243.606 65.2721 243.665 64.9968 243.724C64.446 243.841 63.9802 244.034 63.5993 244.304C63.2243 244.567 62.9313 244.954 62.7204 245.464C62.5095 245.974 62.3835 246.653 62.3425 247.503H62.4567C62.6149 247.263 62.8346 247.022 63.1159 246.782C63.3971 246.542 63.737 246.343 64.1354 246.185C64.5397 246.021 64.9997 245.938 65.5153 245.938C66.3239 245.938 67.0095 246.108 67.572 246.448C68.1403 246.788 68.571 247.28 68.8639 247.925C69.1628 248.569 69.3122 249.346 69.3122 250.254C69.3122 251.338 69.1188 252.246 68.7321 252.979C68.3512 253.705 67.818 254.253 67.1325 254.622C66.447 254.991 65.6471 255.176 64.7331 255.176C64.03 255.176 63.3971 255.044 62.8346 254.78C62.278 254.517 61.8005 254.13 61.402 253.62C61.0095 253.104 60.7077 252.475 60.4968 251.73C60.2858 250.98 60.1804 250.125 60.1804 249.164ZM64.8737 253.479C65.3425 253.479 65.7468 253.38 66.0866 253.181C66.4323 252.981 66.6989 252.659 66.8864 252.214C67.0798 251.769 67.1764 251.18 67.1764 250.447C67.1764 249.545 67.0124 248.836 66.6843 248.32C66.362 247.799 65.8288 247.538 65.0846 247.538C64.6276 247.538 64.2087 247.641 63.8278 247.846C63.447 248.051 63.1247 248.291 62.861 248.566C62.5973 248.836 62.4098 249.073 62.2985 249.278C62.2985 249.812 62.3366 250.327 62.4128 250.825C62.4948 251.323 62.6296 251.774 62.8171 252.179C63.0104 252.577 63.2741 252.894 63.6081 253.128C63.9421 253.362 64.3639 253.479 64.8737 253.479ZM80.2085 250.113C80.2085 250.922 80.103 251.64 79.8921 252.267C79.6812 252.894 79.3736 253.424 78.9693 253.857C78.565 254.285 78.0786 254.613 77.5103 254.842C76.9419 255.064 76.3003 255.176 75.5855 255.176C74.9175 255.176 74.3052 255.064 73.7486 254.842C73.1919 254.613 72.7085 254.285 72.2984 253.857C71.8941 253.424 71.5806 252.894 71.3579 252.267C71.1353 251.64 71.0239 250.922 71.0239 250.113C71.0239 249.041 71.2085 248.133 71.5777 247.389C71.9527 246.639 72.4859 246.067 73.1773 245.675C73.8687 245.282 74.6919 245.086 75.647 245.086C76.5435 245.086 77.3345 245.282 78.02 245.675C78.7056 246.067 79.2417 246.639 79.6284 247.389C80.0152 248.139 80.2085 249.047 80.2085 250.113ZM73.1509 250.113C73.1509 250.822 73.2359 251.429 73.4058 251.933C73.5816 252.437 73.8511 252.823 74.2144 253.093C74.5777 253.356 75.0464 253.488 75.6206 253.488C76.1948 253.488 76.6636 253.356 77.0269 253.093C77.3902 252.823 77.6568 252.437 77.8267 251.933C77.9966 251.429 78.0816 250.822 78.0816 250.113C78.0816 249.404 77.9966 248.804 77.8267 248.312C77.6568 247.813 77.3902 247.436 77.0269 247.178C76.6636 246.914 76.1919 246.782 75.6118 246.782C74.7564 246.782 74.1323 247.069 73.7398 247.644C73.3472 248.218 73.1509 249.041 73.1509 250.113ZM87.4837 245.086C88.638 245.086 89.5638 245.508 90.2611 246.352C90.9642 247.195 91.3158 248.449 91.3158 250.113C91.3158 251.215 91.1517 252.144 90.8236 252.899C90.5013 253.649 90.0472 254.218 89.4613 254.604C88.8812 254.985 88.2045 255.176 87.431 255.176C86.9388 255.176 86.5111 255.111 86.1478 254.982C85.7845 254.854 85.474 254.687 85.2162 254.481C84.9584 254.271 84.7416 254.042 84.5658 253.796H84.4427C84.472 254.03 84.4984 254.291 84.5218 254.578C84.5511 254.859 84.5658 255.117 84.5658 255.352V259.315H82.4916V245.271H84.1791L84.4691 246.615H84.5658C84.7474 246.34 84.9671 246.085 85.225 245.851C85.4886 245.616 85.805 245.432 86.1742 245.297C86.5492 245.156 86.9857 245.086 87.4837 245.086ZM86.93 246.773C86.3617 246.773 85.9046 246.888 85.5589 247.116C85.2191 247.339 84.9701 247.676 84.8119 248.127C84.6595 248.578 84.5775 249.144 84.5658 249.823V250.113C84.5658 250.834 84.639 251.446 84.7855 251.95C84.9379 252.448 85.1869 252.829 85.5326 253.093C85.8841 253.351 86.3587 253.479 86.9564 253.479C87.4603 253.479 87.8763 253.342 88.2045 253.066C88.5384 252.791 88.7875 252.398 88.9515 251.889C89.1156 251.379 89.1976 250.778 89.1976 250.087C89.1976 249.038 89.0101 248.224 88.6351 247.644C88.266 247.063 87.6976 246.773 86.93 246.773ZM105.55 246.896H102.351V255H100.294V246.896H97.1123V245.271H105.55V246.896ZM111.217 245.086C112.084 245.086 112.828 245.265 113.449 245.622C114.07 245.979 114.548 246.486 114.882 247.143C115.216 247.799 115.383 248.584 115.383 249.498V250.605H108.888C108.911 251.549 109.163 252.275 109.643 252.785C110.13 253.295 110.809 253.55 111.683 253.55C112.304 253.55 112.86 253.491 113.352 253.374C113.85 253.251 114.363 253.072 114.891 252.838V254.517C114.404 254.745 113.909 254.912 113.405 255.018C112.901 255.123 112.298 255.176 111.595 255.176C110.64 255.176 109.799 254.991 109.072 254.622C108.351 254.247 107.786 253.69 107.376 252.952C106.972 252.214 106.769 251.297 106.769 250.201C106.769 249.111 106.954 248.186 107.323 247.424C107.692 246.662 108.211 246.082 108.879 245.684C109.547 245.285 110.326 245.086 111.217 245.086ZM111.217 246.642C110.566 246.642 110.039 246.853 109.635 247.274C109.236 247.696 109.002 248.314 108.932 249.129H113.361C113.355 248.643 113.273 248.212 113.115 247.837C112.963 247.462 112.728 247.169 112.412 246.958C112.101 246.747 111.703 246.642 111.217 246.642ZM128.898 245.271V255H126.982V249.445C126.982 249.082 126.991 248.719 127.009 248.355C127.026 247.992 127.05 247.646 127.079 247.318H127.026L124.064 255H122.438L119.503 247.31H119.441C119.47 247.644 119.491 247.989 119.503 248.347C119.52 248.704 119.529 249.091 119.529 249.507V255H117.613V245.271H120.496L123.273 252.539L126.094 245.271H128.898ZM142.631 245.271V246.896H138.395V255H136.321V245.271H142.631ZM149.414 245.086C150.569 245.086 151.494 245.508 152.192 246.352C152.895 247.195 153.246 248.449 153.246 250.113C153.246 251.215 153.082 252.144 152.754 252.899C152.432 253.649 151.978 254.218 151.392 254.604C150.812 254.985 150.135 255.176 149.362 255.176C148.869 255.176 148.442 255.111 148.078 254.982C147.715 254.854 147.405 254.687 147.147 254.481C146.889 254.271 146.672 254.042 146.496 253.796H146.373C146.403 254.03 146.429 254.291 146.452 254.578C146.482 254.859 146.496 255.117 146.496 255.352V259.315H144.422V245.271H146.11L146.4 246.615H146.496C146.678 246.34 146.898 246.085 147.156 245.851C147.419 245.616 147.736 245.432 148.105 245.297C148.48 245.156 148.916 245.086 149.414 245.086ZM148.861 246.773C148.292 246.773 147.835 246.888 147.489 247.116C147.15 247.339 146.901 247.676 146.742 248.127C146.59 248.578 146.508 249.144 146.496 249.823V250.113C146.496 250.834 146.57 251.446 146.716 251.95C146.868 252.448 147.117 252.829 147.463 253.093C147.815 253.351 148.289 253.479 148.887 253.479C149.391 253.479 149.807 253.342 150.135 253.066C150.469 252.791 150.718 252.398 150.882 251.889C151.046 251.379 151.128 250.778 151.128 250.087C151.128 249.038 150.941 248.224 150.566 247.644C150.197 247.063 149.628 246.773 148.861 246.773ZM154.079 245.271H156.329L158.324 250.825C158.412 251.077 158.491 251.326 158.562 251.572C158.638 251.812 158.702 252.05 158.755 252.284C158.814 252.519 158.86 252.753 158.896 252.987H158.948C159.007 252.683 159.089 252.343 159.194 251.968C159.306 251.587 159.429 251.206 159.564 250.825L161.48 245.271H163.703L159.528 256.336C159.288 256.969 158.992 257.508 158.641 257.953C158.295 258.404 157.885 258.744 157.41 258.973C156.936 259.207 156.394 259.324 155.784 259.324C155.491 259.324 155.236 259.307 155.02 259.271C154.803 259.242 154.618 259.21 154.466 259.175V257.522C154.589 257.552 154.744 257.578 154.932 257.602C155.119 257.625 155.313 257.637 155.512 257.637C155.881 257.637 156.2 257.563 156.47 257.417C156.739 257.271 156.968 257.062 157.155 256.793C157.343 256.529 157.498 256.228 157.621 255.888L157.964 254.974L154.079 245.271ZM173.589 245.271V255H171.506V246.905H167.164V255H165.09V245.271H173.589ZM184.96 245.271V255H182.877V246.905H178.535V255H176.461V245.271H184.96ZM196.445 250.113C196.445 250.922 196.339 251.64 196.129 252.267C195.918 252.894 195.61 253.424 195.206 253.857C194.801 254.285 194.315 254.613 193.747 254.842C193.178 255.064 192.537 255.176 191.822 255.176C191.154 255.176 190.542 255.064 189.985 254.842C189.428 254.613 188.945 254.285 188.535 253.857C188.13 253.424 187.817 252.894 187.594 252.267C187.372 251.64 187.26 250.922 187.26 250.113C187.26 249.041 187.445 248.133 187.814 247.389C188.189 246.639 188.722 246.067 189.414 245.675C190.105 245.282 190.928 245.086 191.883 245.086C192.78 245.086 193.571 245.282 194.256 245.675C194.942 246.067 195.478 246.639 195.865 247.389C196.252 248.139 196.445 249.047 196.445 250.113ZM189.387 250.113C189.387 250.822 189.472 251.429 189.642 251.933C189.818 252.437 190.087 252.823 190.451 253.093C190.814 253.356 191.283 253.488 191.857 253.488C192.431 253.488 192.9 253.356 193.263 253.093C193.627 252.823 193.893 252.437 194.063 251.933C194.233 251.429 194.318 250.822 194.318 250.113C194.318 249.404 194.233 248.804 194.063 248.312C193.893 247.813 193.627 247.436 193.263 247.178C192.9 246.914 192.428 246.782 191.848 246.782C190.993 246.782 190.369 247.069 189.976 247.644C189.584 248.218 189.387 249.041 189.387 250.113ZM206.911 247.767C206.911 248.329 206.738 248.789 206.392 249.146C206.052 249.498 205.583 249.729 204.986 249.841V249.911C205.624 249.993 206.158 250.219 206.585 250.588C207.013 250.957 207.227 251.47 207.227 252.126C207.227 252.683 207.086 253.178 206.805 253.611C206.53 254.039 206.09 254.379 205.487 254.631C204.889 254.877 204.107 255 203.14 255H198.728V245.271H203.122C203.849 245.271 204.497 245.35 205.065 245.508C205.639 245.666 206.09 245.927 206.418 246.29C206.747 246.653 206.911 247.146 206.911 247.767ZM205.074 252.056C205.074 251.575 204.889 251.229 204.52 251.019C204.157 250.808 203.623 250.702 202.92 250.702H200.802V253.479H202.964C203.621 253.479 204.136 253.371 204.511 253.154C204.886 252.932 205.074 252.565 205.074 252.056ZM204.81 247.951C204.81 247.57 204.666 247.289 204.379 247.107C204.092 246.92 203.641 246.826 203.026 246.826H200.802V249.182H202.745C203.424 249.182 203.937 249.085 204.283 248.892C204.634 248.692 204.81 248.379 204.81 247.951ZM209.466 255V245.271H211.54V249.155H213.5C214.414 249.155 215.167 249.261 215.759 249.472C216.351 249.677 216.79 249.987 217.077 250.403C217.365 250.819 217.508 251.341 217.508 251.968C217.508 252.583 217.37 253.119 217.095 253.576C216.82 254.027 216.389 254.379 215.803 254.631C215.217 254.877 214.449 255 213.5 255H209.466ZM211.54 253.479H213.36C213.981 253.479 214.482 253.368 214.863 253.146C215.249 252.917 215.443 252.542 215.443 252.021C215.443 251.534 215.264 251.191 214.907 250.992C214.555 250.787 214.039 250.685 213.36 250.685H211.54V253.479ZM219.011 255V245.271H221.085V255H219.011ZM226.102 250.025L222.85 245.271H225.205L227.429 248.689L229.661 245.271H232.008L228.738 250.025L232.175 255H229.811L227.429 251.353L225.038 255H222.692L226.102 250.025ZM246.857 245.271V255H244.774V246.905H240.432V255H238.358V245.271H246.857ZM254.721 245.086C255.876 245.086 256.801 245.508 257.499 246.352C258.202 247.195 258.553 248.449 258.553 250.113C258.553 251.215 258.389 252.144 258.061 252.899C257.739 253.649 257.285 254.218 256.699 254.604C256.119 254.985 255.442 255.176 254.669 255.176C254.176 255.176 253.749 255.111 253.385 254.982C253.022 254.854 252.712 254.687 252.454 254.481C252.196 254.271 251.979 254.042 251.803 253.796H251.68C251.71 254.03 251.736 254.291 251.759 254.578C251.789 254.859 251.803 255.117 251.803 255.352V259.315H249.729V245.271H251.417L251.707 246.615H251.803C251.985 246.34 252.205 246.085 252.463 245.851C252.726 245.616 253.043 245.432 253.412 245.297C253.787 245.156 254.223 245.086 254.721 245.086ZM254.168 246.773C253.599 246.773 253.142 246.888 252.797 247.116C252.457 247.339 252.208 247.676 252.049 248.127C251.897 248.578 251.815 249.144 251.803 249.823V250.113C251.803 250.834 251.877 251.446 252.023 251.95C252.175 252.448 252.424 252.829 252.77 253.093C253.122 253.351 253.596 253.479 254.194 253.479C254.698 253.479 255.114 253.342 255.442 253.066C255.776 252.791 256.025 252.398 256.189 251.889C256.353 251.379 256.435 250.778 256.435 250.087C256.435 249.038 256.248 248.224 255.873 247.644C255.504 247.063 254.935 246.773 254.168 246.773ZM269.467 250.113C269.467 250.922 269.362 251.64 269.151 252.267C268.94 252.894 268.632 253.424 268.228 253.857C267.824 254.285 267.337 254.613 266.769 254.842C266.201 255.064 265.559 255.176 264.844 255.176C264.176 255.176 263.564 255.064 263.007 254.842C262.451 254.613 261.967 254.285 261.557 253.857C261.153 253.424 260.839 252.894 260.617 252.267C260.394 251.64 260.283 250.922 260.283 250.113C260.283 249.041 260.467 248.133 260.836 247.389C261.211 246.639 261.745 246.067 262.436 245.675C263.127 245.282 263.951 245.086 264.906 245.086C265.802 245.086 266.593 245.282 267.279 245.675C267.964 246.067 268.5 246.639 268.887 247.389C269.274 248.139 269.467 249.047 269.467 250.113ZM262.41 250.113C262.41 250.822 262.495 251.429 262.665 251.933C262.84 252.437 263.11 252.823 263.473 253.093C263.836 253.356 264.305 253.488 264.879 253.488C265.454 253.488 265.922 253.356 266.286 253.093C266.649 252.823 266.916 252.437 267.085 251.933C267.255 251.429 267.34 250.822 267.34 250.113C267.34 249.404 267.255 248.804 267.085 248.312C266.916 247.813 266.649 247.436 266.286 247.178C265.922 246.914 265.451 246.782 264.871 246.782C264.015 246.782 263.391 247.069 262.999 247.644C262.606 248.218 262.41 249.041 262.41 250.113ZM275.626 245.086C276.493 245.086 277.238 245.265 277.859 245.622C278.48 245.979 278.957 246.486 279.291 247.143C279.625 247.799 279.792 248.584 279.792 249.498V250.605H273.297C273.321 251.549 273.573 252.275 274.053 252.785C274.539 253.295 275.219 253.55 276.092 253.55C276.713 253.55 277.27 253.491 277.762 253.374C278.26 253.251 278.773 253.072 279.3 252.838V254.517C278.814 254.745 278.319 254.912 277.815 255.018C277.311 255.123 276.707 255.176 276.004 255.176C275.049 255.176 274.208 254.991 273.482 254.622C272.761 254.247 272.196 253.69 271.785 252.952C271.381 252.214 271.179 251.297 271.179 250.201C271.179 249.111 271.364 248.186 271.733 247.424C272.102 246.662 272.62 246.082 273.288 245.684C273.956 245.285 274.736 245.086 275.626 245.086ZM275.626 246.642C274.976 246.642 274.449 246.853 274.044 247.274C273.646 247.696 273.411 248.314 273.341 249.129H277.771C277.765 248.643 277.683 248.212 277.525 247.837C277.372 247.462 277.138 247.169 276.822 246.958C276.511 246.747 276.113 246.642 275.626 246.642ZM288.061 245.271H290.337L286.312 249.946L290.68 255H288.298L284.106 250.061V255H282.031V245.271H284.106V249.99L288.061 245.271ZM299.52 246.896H296.32V255H294.264V246.896H291.082V245.271H299.52V246.896ZM309.924 250.113C309.924 250.922 309.818 251.64 309.607 252.267C309.396 252.894 309.089 253.424 308.684 253.857C308.28 254.285 307.794 254.613 307.225 254.842C306.657 255.064 306.015 255.176 305.301 255.176C304.633 255.176 304.02 255.064 303.464 254.842C302.907 254.613 302.424 254.285 302.014 253.857C301.609 253.424 301.296 252.894 301.073 252.267C300.85 251.64 300.739 250.922 300.739 250.113C300.739 249.041 300.924 248.133 301.293 247.389C301.668 246.639 302.201 246.067 302.892 245.675C303.584 245.282 304.407 245.086 305.362 245.086C306.259 245.086 307.05 245.282 307.735 245.675C308.421 246.067 308.957 246.639 309.344 247.389C309.73 248.139 309.924 249.047 309.924 250.113ZM302.866 250.113C302.866 250.822 302.951 251.429 303.121 251.933C303.297 252.437 303.566 252.823 303.93 253.093C304.293 253.356 304.762 253.488 305.336 253.488C305.91 253.488 306.379 253.356 306.742 253.093C307.105 252.823 307.372 252.437 307.542 251.933C307.712 251.429 307.797 250.822 307.797 250.113C307.797 249.404 307.712 248.804 307.542 248.312C307.372 247.813 307.105 247.436 306.742 247.178C306.379 246.914 305.907 246.782 305.327 246.782C304.472 246.782 303.848 247.069 303.455 247.644C303.062 248.218 302.866 249.041 302.866 250.113ZM320.389 247.767C320.389 248.329 320.216 248.789 319.871 249.146C319.531 249.498 319.062 249.729 318.465 249.841V249.911C319.103 249.993 319.636 250.219 320.064 250.588C320.492 250.957 320.706 251.47 320.706 252.126C320.706 252.683 320.565 253.178 320.284 253.611C320.008 254.039 319.569 254.379 318.966 254.631C318.368 254.877 317.586 255 316.619 255H312.207V245.271H316.601C317.328 245.271 317.975 245.35 318.544 245.508C319.118 245.666 319.569 245.927 319.897 246.29C320.225 246.653 320.389 247.146 320.389 247.767ZM318.552 252.056C318.552 251.575 318.368 251.229 317.999 251.019C317.635 250.808 317.102 250.702 316.399 250.702H314.281V253.479H316.443C317.099 253.479 317.615 253.371 317.99 253.154C318.365 252.932 318.552 252.565 318.552 252.056ZM318.289 247.951C318.289 247.57 318.145 247.289 317.858 247.107C317.571 246.92 317.12 246.826 316.505 246.826H314.281V249.182H316.223C316.903 249.182 317.416 249.085 317.761 248.892C318.113 248.692 318.289 248.379 318.289 247.951Z" fill="black"/>
</svg>
